<svg id="svg" version="1.1" width="1000" height="359" xmlns="http://www.w3.org/2000/svg" xmlns:xlink="http://www.w3.org/1999/xlink" style="display: block;"><g id="svgg"><path id="path0" d="M0.000 71.800 L 0.000 143.600 200.000 143.600 L 400.000 143.600 400.000 71.800 L 400.000 0.000 200.000 0.000 L 0.000 0.000 0.000 71.800 M166.681 23.241 C 172.705 25.613,179.600 32.069,179.600 35.337 C 179.600 35.676,179.759 36.051,179.952 36.170 C 180.727 36.649,180.892 39.269,181.180 55.600 C 181.538 75.953,181.762 76.935,187.269 82.260 C 192.168 86.997,193.210 87.235,210.600 87.580 C 226.084 87.887,226.451 87.945,230.573 90.781 C 236.015 94.526,238.004 99.603,238.002 109.742 C 237.999 121.395,235.231 127.067,227.842 130.563 L 225.650 131.600 208.782 131.600 L 191.914 131.600 189.457 130.426 C 182.516 127.109,180.006 122.538,179.991 113.187 C 179.971 101.183,176.055 94.238,167.200 90.505 L 164.600 89.408 102.800 89.187 C 60.057 89.034,40.545 88.832,39.525 88.531 C 33.136 86.646,27.817 81.710,25.374 75.400 C 24.650 73.528,24.600 72.245,24.600 55.400 L 24.600 37.400 26.110 34.365 C 28.481 29.599,32.836 25.562,37.786 23.541 C 39.801 22.719,164.618 22.428,166.681 23.241 M51.200 41.548 C 42.910 43.378,41.587 53.809,49.305 56.482 C 50.237 56.805,51.630 57.296,52.400 57.574 C 53.170 57.851,54.430 58.210,55.200 58.370 C 57.758 58.902,60.000 60.501,60.000 61.792 C 60.000 64.684,53.559 65.994,49.382 63.952 C 47.622 63.092,44.257 63.682,43.821 64.927 C 42.733 68.035,47.374 70.400,54.562 70.400 C 61.646 70.400,66.000 67.141,66.000 61.839 C 66.000 57.006,64.032 55.336,55.063 52.556 C 51.260 51.376,50.114 50.395,50.543 48.683 C 51.027 46.756,55.673 45.713,58.110 46.984 C 62.502 49.275,67.160 46.978,64.337 43.913 C 62.460 41.876,55.440 40.612,51.200 41.548 M74.926 41.588 C 72.022 42.808,72.680 60.697,75.794 65.191 C 81.027 72.743,93.732 71.964,97.681 63.849 C 99.175 60.777,99.959 45.304,98.754 42.660 C 98.209 41.462,96.325 41.001,94.853 41.705 L 93.800 42.209 93.594 50.604 C 93.334 61.214,92.205 63.817,87.539 64.563 C 81.357 65.552,79.200 61.889,79.200 50.400 C 79.200 44.268,79.079 42.398,78.662 42.051 C 77.882 41.404,75.938 41.162,74.926 41.588 M108.623 42.489 C 108.091 43.248,108.000 45.225,108.000 56.019 L 108.000 68.661 108.926 69.530 C 111.543 71.989,113.600 70.235,113.600 65.545 C 113.600 60.983,113.815 60.729,117.551 60.881 L 120.484 61.000 121.342 62.620 C 121.814 63.511,122.631 65.221,123.157 66.420 C 124.934 70.470,126.733 71.397,128.904 69.384 C 130.355 68.039,130.294 67.327,128.400 63.503 C 126.457 59.581,126.460 59.684,128.231 57.978 C 133.057 53.330,131.389 45.259,125.000 42.347 C 122.338 41.133,109.494 41.245,108.623 42.489 M140.000 42.400 C 138.695 43.705,138.763 68.362,140.075 69.584 C 142.758 72.083,144.957 70.108,145.114 65.059 C 145.298 59.116,144.830 59.600,150.394 59.600 C 155.722 59.600,156.000 59.457,156.000 56.706 C 156.000 54.622,155.508 54.400,150.894 54.400 C 145.334 54.400,145.200 54.311,145.200 50.600 C 145.200 46.706,145.124 46.741,153.278 46.832 C 160.951 46.917,161.842 46.392,160.410 42.626 L 160.020 41.600 150.410 41.600 C 141.333 41.600,140.756 41.644,140.000 42.400 M220.200 42.959 C 223.199 44.345,224.019 45.174,224.274 47.074 C 224.752 50.638,221.879 51.694,217.400 49.600 C 210.694 46.465,204.498 51.676,206.407 58.846 C 207.969 64.715,213.323 66.403,219.000 62.816 C 222.601 60.542,226.331 64.117,223.808 67.425 C 220.743 71.443,212.102 72.735,206.643 69.992 C 194.112 63.695,196.547 44.505,210.200 41.950 C 212.970 41.432,217.993 41.939,220.200 42.959 M248.548 43.027 C 254.652 45.917,258.421 53.107,256.988 59.126 C 253.248 74.831,232.052 75.989,227.186 60.755 C 223.333 48.695,236.842 37.485,248.548 43.027 M268.540 43.300 C 270.116 44.926,271.119 46.181,275.719 52.280 C 280.214 58.239,280.199 58.241,280.051 51.731 C 279.879 44.162,280.736 42.000,283.907 42.000 C 285.479 42.000,287.192 43.492,287.216 44.882 C 287.536 63.414,287.138 69.977,285.645 70.776 C 282.806 72.295,281.679 71.491,275.737 63.698 C 272.929 60.014,270.130 56.460,269.517 55.800 L 268.404 54.600 268.402 62.071 L 268.400 69.542 267.346 70.371 C 265.949 71.470,264.300 71.419,262.922 70.235 L 261.800 69.271 261.600 57.408 C 261.490 50.884,261.546 45.153,261.724 44.673 C 262.834 41.684,266.297 40.986,268.540 43.300 M313.569 43.036 C 314.475 43.797,314.797 44.406,314.787 45.336 C 314.758 48.227,313.264 48.800,305.753 48.800 L 299.958 48.800 300.079 50.838 L 300.200 52.877 305.458 52.938 C 311.975 53.015,313.912 54.239,312.756 57.553 C 312.184 59.195,311.716 59.327,305.600 59.578 L 300.200 59.800 300.080 62.100 L 299.960 64.400 305.954 64.400 C 313.764 64.400,315.693 65.245,315.007 68.369 C 314.460 70.856,313.128 71.200,304.026 71.200 C 291.971 71.200,292.818 72.303,292.818 56.600 C 292.818 40.889,291.938 42.030,304.069 42.012 L 312.339 42.000 313.569 43.036 M324.236 42.733 C 324.669 43.137,326.260 45.117,327.772 47.133 C 331.050 51.506,330.591 51.422,333.018 48.100 C 337.757 41.614,339.862 40.494,342.164 43.231 C 343.976 45.384,343.848 45.713,338.722 52.076 C 334.974 56.729,335.015 55.963,338.300 59.962 C 343.087 65.790,343.200 65.972,343.200 67.830 C 343.200 70.417,340.769 71.931,338.200 70.945 C 337.834 70.804,336.096 68.779,334.338 66.445 C 330.477 61.315,330.903 61.342,327.313 66.000 C 322.935 71.680,321.204 72.541,318.981 70.142 C 317.114 68.127,317.764 66.558,323.183 60.000 C 325.877 56.740,326.387 55.824,325.672 55.533 C 324.149 54.913,318.800 47.165,318.800 45.578 C 318.800 42.459,322.093 40.736,324.236 42.733 M368.008 42.604 C 370.185 43.730,370.638 45.994,369.034 47.725 C 367.946 48.899,367.150 49.148,364.000 49.296 L 361.800 49.400 361.600 58.800 C 361.433 66.662,361.288 68.405,360.715 69.452 C 359.595 71.498,357.196 71.846,355.322 70.235 L 354.200 69.271 354.000 59.335 L 353.800 49.400 351.057 49.281 C 345.645 49.045,343.424 45.253,347.189 42.677 C 348.587 41.720,366.180 41.659,368.008 42.604 M121.036 47.251 C 125.601 48.400,126.407 53.518,122.296 55.253 C 120.450 56.032,114.493 55.994,113.992 55.200 C 113.414 54.286,113.502 48.179,114.100 47.687 C 115.159 46.818,118.484 46.608,121.036 47.251 M238.494 49.252 C 231.398 52.513,234.168 64.787,242.000 64.787 C 248.056 64.787,251.716 57.230,248.189 52.007 C 245.889 48.600,242.196 47.550,238.494 49.252 " stroke="none" fill="#ffffff" fill-rule="evenodd"></path><path id="path1" d="M42.084 23.815 C 41.801 24.137,40.991 24.401,40.284 24.402 C 39.578 24.404,38.484 24.674,37.854 25.002 C 37.224 25.331,36.541 25.600,36.337 25.600 C 33.875 25.600,28.103 32.409,26.335 37.400 C 25.366 40.133,25.248 71.935,26.200 73.600 C 26.514 74.150,26.778 74.902,26.786 75.271 C 26.855 78.539,32.740 84.416,38.068 86.538 L 40.736 87.600 100.789 87.600 C 167.337 87.600,163.770 87.464,169.436 90.220 C 173.937 92.410,179.600 98.660,179.600 101.439 C 179.600 101.697,179.869 102.424,180.198 103.054 C 180.651 103.924,180.796 105.674,180.798 110.325 C 180.802 122.225,185.049 128.978,193.300 130.208 C 194.345 130.363,195.200 130.650,195.200 130.845 C 195.200 131.320,222.285 131.310,222.578 130.835 C 222.703 130.634,223.568 130.345,224.502 130.193 C 228.688 129.510,232.816 126.186,235.056 121.693 L 236.200 119.400 236.200 110.000 C 236.200 97.225,234.685 93.970,227.000 90.239 C 225.542 89.531,224.122 89.439,211.000 89.199 C 203.080 89.055,196.240 88.799,195.800 88.632 C 195.360 88.464,194.640 88.188,194.200 88.018 C 187.493 85.425,183.112 80.950,180.671 74.200 C 180.401 73.453,180.147 66.654,179.998 56.200 C 179.743 38.258,179.809 38.846,177.506 34.181 C 174.999 29.105,169.575 24.925,164.603 24.239 C 163.725 24.118,162.945 23.835,162.870 23.609 C 162.627 22.882,42.727 23.087,42.084 23.815 M61.097 40.638 C 65.213 41.972,67.270 44.500,66.242 46.961 C 65.194 49.469,62.701 50.291,60.200 48.953 C 58.914 48.266,52.343 47.928,51.749 48.519 C 50.796 49.468,52.244 50.370,57.000 51.790 C 65.870 54.438,68.695 58.149,66.843 64.721 C 65.209 70.521,52.717 74.176,46.914 70.553 C 46.427 70.249,45.792 70.000,45.503 70.000 C 43.399 70.000,41.491 66.207,42.579 64.187 C 43.781 61.955,45.336 61.591,49.080 62.666 C 52.235 63.571,56.264 63.808,57.475 63.160 C 58.534 62.593,58.601 61.293,57.600 60.766 C 55.624 59.727,54.148 59.200,53.215 59.200 C 52.631 59.200,51.804 58.936,51.376 58.613 C 50.949 58.290,50.189 58.020,49.686 58.013 C 48.639 57.998,47.053 57.065,45.594 55.606 C 41.043 51.055,43.050 42.703,49.166 40.741 C 52.472 39.680,57.993 39.633,61.097 40.638 M79.053 40.709 C 80.659 42.010,80.800 42.856,80.800 51.194 C 80.800 59.586,80.966 60.554,82.659 62.061 C 85.215 64.337,89.620 63.498,91.180 60.439 C 91.928 58.974,92.000 58.108,92.000 50.647 L 92.000 42.462 93.231 41.231 C 94.877 39.584,97.348 39.503,99.169 41.036 L 100.400 42.071 100.400 51.422 C 100.400 61.223,100.432 61.000,98.442 65.134 C 95.175 71.923,83.457 73.961,77.367 68.800 C 73.091 65.177,72.654 63.652,72.499 51.800 L 72.368 41.800 73.484 40.902 C 74.875 39.782,77.785 39.681,79.053 40.709 M123.622 40.560 C 125.797 41.080,128.563 42.542,129.464 43.646 C 133.052 48.044,133.095 55.169,129.553 58.477 C 128.113 59.823,128.117 59.960,129.692 63.168 C 132.133 68.140,131.057 71.258,126.878 71.321 C 124.388 71.359,123.948 71.001,122.378 67.664 C 119.694 61.957,120.104 62.400,117.509 62.400 L 115.200 62.400 115.199 65.300 C 115.198 70.221,113.568 72.022,109.726 71.345 C 106.762 70.823,106.405 69.164,106.402 55.877 C 106.400 43.312,106.615 41.930,108.752 40.801 C 110.552 39.849,120.012 39.696,123.622 40.560 M160.426 40.906 C 162.634 42.394,162.789 45.882,160.723 47.604 C 159.892 48.296,159.110 48.375,152.900 48.387 L 146.000 48.400 146.000 50.600 L 146.000 52.800 150.564 52.800 L 155.129 52.800 156.137 53.998 C 159.514 58.012,157.065 61.100,150.359 61.285 L 146.200 61.400 146.000 65.600 C 145.769 70.457,145.691 70.637,143.591 71.203 C 138.199 72.654,137.596 71.124,137.617 56.041 C 137.640 39.037,136.816 40.082,150.241 40.032 C 158.790 40.001,159.126 40.030,160.426 40.906 M209.369 43.541 C 194.369 48.408,198.024 70.400,213.832 70.400 C 218.195 70.400,223.353 67.437,223.123 65.063 C 222.981 63.606,220.560 63.006,219.261 64.106 C 213.481 69.000,204.808 64.496,204.808 56.600 C 204.808 49.265,212.125 44.974,218.459 48.595 C 220.563 49.798,221.644 49.856,222.585 48.816 C 225.691 45.385,215.824 41.447,209.369 43.541 M237.800 43.553 C 222.687 48.619,226.142 70.400,242.059 70.400 C 243.141 70.400,244.672 70.130,245.462 69.800 C 246.251 69.470,247.145 69.200,247.448 69.200 C 249.255 69.200,253.321 65.048,254.985 61.504 C 255.760 59.853,255.980 53.161,255.287 52.280 C 255.080 52.016,254.802 51.345,254.670 50.789 C 253.415 45.512,244.001 41.474,237.800 43.553 M263.776 43.767 C 262.879 44.423,262.341 66.340,263.169 68.518 C 263.747 70.038,265.372 70.354,266.614 69.187 C 267.566 68.293,267.585 68.139,267.692 60.638 C 267.821 51.500,267.939 51.359,271.487 56.071 C 282.217 70.320,282.789 70.885,285.003 69.435 L 286.000 68.782 286.000 56.600 L 286.000 44.418 284.954 43.733 C 284.016 43.118,283.799 43.109,282.854 43.638 L 281.800 44.229 281.600 51.882 C 281.328 62.309,281.697 62.284,274.215 52.376 C 267.091 42.943,266.064 42.096,263.776 43.767 M320.470 44.126 C 319.045 45.642,319.092 45.727,325.700 53.678 C 327.770 56.168,327.694 56.436,323.400 61.810 C 319.206 67.059,318.589 68.756,320.549 69.650 C 321.998 70.310,322.831 69.647,326.455 64.952 C 330.798 59.328,330.326 59.387,334.000 64.006 C 338.252 69.353,338.683 69.805,339.634 69.918 C 340.286 69.996,340.954 69.688,341.582 69.020 C 342.810 67.712,342.623 67.337,337.702 61.206 C 335.668 58.673,334.008 56.420,334.012 56.200 C 334.021 55.793,337.835 50.919,340.042 48.494 C 341.535 46.853,341.962 44.819,341.012 43.870 C 339.530 42.387,338.407 43.135,334.803 48.000 C 330.672 53.576,330.949 53.570,327.003 48.191 C 323.110 42.886,322.179 42.306,320.470 44.126 M294.987 44.160 C 294.147 44.774,293.719 68.252,294.532 69.067 C 295.057 69.592,311.826 69.721,312.785 69.208 C 313.601 68.771,313.813 67.819,313.357 66.633 C 313.150 66.092,312.175 66.000,306.646 66.000 C 298.527 66.000,298.400 65.939,298.400 62.026 C 298.400 58.426,298.368 58.444,305.212 58.311 L 310.971 58.200 311.585 57.076 C 312.739 54.966,311.344 54.400,304.984 54.400 C 298.607 54.400,298.400 54.288,298.400 50.820 C 298.400 47.640,298.405 47.638,306.017 47.510 C 313.264 47.388,314.535 46.862,313.036 44.604 C 312.329 43.538,296.374 43.145,294.987 44.160 M347.500 44.032 C 346.714 44.490,346.593 45.667,347.214 46.826 C 347.576 47.503,348.078 47.600,351.206 47.600 C 355.575 47.600,355.165 46.449,355.298 59.083 C 355.409 69.622,355.486 69.952,357.838 69.987 C 359.867 70.018,360.000 69.315,360.000 58.549 C 360.000 46.938,359.755 47.600,364.047 47.600 C 368.089 47.600,368.400 47.457,368.400 45.604 C 368.400 44.375,368.232 44.048,367.500 43.852 C 365.941 43.434,348.253 43.593,347.500 44.032 M247.060 48.900 C 254.270 54.293,250.805 66.000,242.000 66.000 C 233.129 66.000,229.587 54.071,236.887 48.783 C 239.413 46.953,244.536 47.012,247.060 48.900 M115.282 51.300 L 115.400 54.200 118.749 54.183 C 123.313 54.161,124.955 52.230,122.771 49.454 C 121.992 48.464,121.738 48.400,118.553 48.400 L 115.165 48.400 115.282 51.300 " stroke="none" fill="#4db2ce" fill-rule="evenodd"></path><path id="path2" d="M38.616 24.278 C 32.533 26.461,28.416 30.645,25.986 37.113 C 25.714 37.835,25.594 38.527,25.718 38.652 C 25.843 38.776,26.177 38.095,26.461 37.139 C 27.737 32.846,33.939 25.600,36.337 25.600 C 36.541 25.600,37.224 25.331,37.854 25.002 C 38.484 24.674,39.480 24.404,40.067 24.402 C 41.384 24.399,42.400 24.031,42.400 23.557 C 42.400 23.035,41.719 23.164,38.616 24.278 M162.800 23.553 C 162.800 23.977,164.216 24.394,165.600 24.377 C 166.401 24.367,166.282 24.250,165.000 23.788 C 163.123 23.112,162.800 23.078,162.800 23.553 M168.462 25.367 C 172.353 27.299,175.590 30.375,177.428 33.887 C 178.036 35.049,178.611 35.922,178.706 35.827 C 179.770 34.764,172.960 27.101,169.494 25.462 C 166.746 24.162,165.874 24.081,168.462 25.367 M178.959 37.200 C 179.478 39.841,179.916 41.045,179.959 39.946 C 179.982 39.366,179.721 38.286,179.381 37.546 C 178.914 36.529,178.810 36.445,178.959 37.200 M25.383 55.800 C 25.383 65.040,25.436 68.763,25.500 64.073 C 25.564 59.383,25.564 51.823,25.499 47.273 C 25.435 42.723,25.383 46.560,25.383 55.800 M53.600 40.028 C 47.884 40.510,43.151 43.819,43.218 47.286 C 43.230 47.951,43.386 47.777,43.789 46.646 C 45.961 40.551,56.998 38.140,63.715 42.293 C 68.458 45.225,65.415 50.687,60.200 48.602 C 59.580 48.354,59.502 48.393,59.852 48.773 C 61.441 50.499,65.205 49.444,66.233 46.982 C 67.984 42.791,61.720 39.343,53.600 40.028 M73.500 40.846 C 72.740 41.413,72.417 41.996,72.454 42.733 C 72.502 43.664,72.531 43.686,72.681 42.908 C 73.064 40.924,76.371 39.714,78.417 40.809 C 79.982 41.647,80.193 42.745,80.416 51.200 L 80.632 59.400 80.716 51.274 C 80.803 42.813,80.680 42.026,79.053 40.709 C 77.844 39.729,74.899 39.802,73.500 40.846 M93.231 41.231 L 92.000 42.462 92.000 50.647 C 92.000 58.108,91.928 58.974,91.180 60.439 C 89.210 64.301,83.854 64.390,81.537 60.600 C 81.133 59.940,80.802 59.619,80.801 59.886 C 80.799 60.838,83.185 63.067,84.766 63.589 C 86.916 64.298,89.539 63.350,91.107 61.297 L 92.200 59.865 92.400 51.097 L 92.600 42.329 93.722 41.364 C 95.279 40.026,97.677 40.041,99.032 41.396 L 100.028 42.392 99.897 51.696 C 99.825 56.813,99.627 61.450,99.458 62.000 L 99.150 63.000 99.761 62.000 C 100.262 61.179,100.374 59.302,100.386 51.536 L 100.400 42.071 99.169 41.036 C 97.348 39.503,94.877 39.584,93.231 41.231 M108.752 40.801 C 107.585 41.417,107.216 41.915,106.852 43.360 C 106.368 45.282,106.272 66.263,106.740 67.924 C 106.883 68.432,107.000 63.114,107.000 56.106 C 107.000 39.462,106.546 40.154,117.242 40.487 C 124.589 40.716,127.804 41.830,129.831 44.847 C 130.242 45.457,130.647 45.886,130.732 45.801 C 131.087 45.446,128.995 43.081,127.479 42.124 C 123.995 39.924,112.013 39.078,108.752 40.801 M140.239 40.578 C 137.775 41.665,137.635 42.488,137.617 56.041 C 137.599 69.360,137.845 70.788,140.214 71.097 C 140.881 71.184,140.865 71.141,140.113 70.817 C 138.226 70.005,138.000 68.411,138.000 55.938 C 138.000 39.521,137.314 40.400,150.127 40.400 C 158.917 40.400,160.244 40.626,161.329 42.309 C 161.873 43.151,162.006 43.221,161.914 42.614 C 161.543 40.173,144.733 38.594,140.239 40.578 M208.212 43.465 C 206.026 44.252,202.753 46.819,201.857 48.449 C 201.204 49.637,201.313 49.575,202.764 47.928 C 204.703 45.728,206.636 44.450,209.398 43.541 C 210.499 43.179,211.040 42.885,210.600 42.888 C 210.160 42.891,209.085 43.151,208.212 43.465 M218.122 43.613 C 222.365 45.008,224.150 47.088,222.585 48.816 C 221.644 49.856,220.563 49.798,218.459 48.595 C 217.502 48.048,216.512 47.603,216.259 47.607 C 216.007 47.611,216.774 48.151,217.964 48.807 C 221.116 50.544,223.600 49.884,223.600 47.310 C 223.600 45.778,218.933 42.759,216.667 42.825 C 216.190 42.839,216.845 43.194,218.122 43.613 M236.482 43.541 C 226.241 47.468,224.472 61.857,233.469 68.047 C 234.452 68.724,235.336 69.197,235.433 69.100 C 235.531 69.002,234.807 68.415,233.825 67.794 C 225.925 62.801,226.370 49.305,234.579 44.881 C 235.251 44.519,236.700 43.921,237.800 43.553 C 238.900 43.184,239.440 42.882,239.000 42.882 C 238.560 42.882,237.427 43.179,236.482 43.541 M246.234 43.582 C 249.686 44.811,252.243 46.754,254.139 49.589 C 254.502 50.133,254.800 50.372,254.800 50.121 C 254.800 48.213,247.360 42.728,244.909 42.829 C 244.519 42.845,245.115 43.184,246.234 43.582 M263.362 43.642 C 262.186 44.941,262.186 68.259,263.362 69.558 C 264.403 70.709,265.672 70.614,266.830 69.300 L 267.800 68.200 266.722 69.149 C 265.361 70.347,263.756 70.063,263.169 68.518 C 262.341 66.340,262.879 44.423,263.776 43.767 C 264.883 42.959,266.555 43.066,267.400 44.000 C 267.798 44.440,268.321 44.794,268.562 44.787 C 268.803 44.780,268.495 44.330,267.878 43.787 C 266.454 42.535,264.423 42.470,263.362 43.642 M282.070 43.726 C 281.245 44.604,281.200 45.014,281.200 51.702 C 281.200 61.216,281.350 61.188,275.077 52.835 C 272.834 49.849,270.487 46.865,269.860 46.203 C 269.233 45.541,271.196 48.302,274.223 52.337 C 281.691 62.294,281.327 62.316,281.600 51.882 L 281.800 44.229 282.854 43.638 C 283.799 43.109,284.016 43.118,284.954 43.733 L 286.000 44.418 286.000 56.600 L 286.000 68.782 285.003 69.435 C 282.789 70.885,282.217 70.320,271.487 56.071 C 267.929 51.346,267.803 51.499,267.786 60.600 L 267.771 68.200 267.895 61.010 C 267.963 57.056,268.171 53.669,268.356 53.484 C 268.541 53.299,271.085 56.264,274.008 60.074 C 282.219 70.775,283.402 71.740,285.530 69.474 C 286.383 68.566,286.400 68.319,286.400 56.544 L 286.400 44.539 285.474 43.670 C 284.281 42.548,283.159 42.567,282.070 43.726 M320.029 43.854 C 318.627 45.637,318.854 46.236,322.592 50.600 C 327.416 56.233,327.449 56.336,325.282 58.844 C 324.447 59.810,323.412 61.075,322.982 61.655 C 322.552 62.235,321.513 63.528,320.674 64.528 C 318.952 66.580,318.650 68.330,319.801 69.601 C 321.463 71.438,322.896 70.472,327.374 64.500 C 330.343 60.541,330.496 60.436,331.769 61.485 C 332.535 62.117,332.532 62.097,331.733 61.230 C 330.520 59.913,330.135 60.186,326.429 64.987 C 322.905 69.552,321.846 70.374,320.451 69.627 C 318.639 68.658,319.275 66.973,323.400 61.810 C 327.694 56.436,327.770 56.168,325.700 53.678 C 319.051 45.679,318.972 45.529,320.578 44.021 C 322.236 42.463,323.223 43.090,326.860 48.009 C 330.986 53.588,330.663 53.589,334.803 48.000 C 338.407 43.135,339.530 42.387,341.012 43.870 C 341.962 44.819,341.535 46.853,340.042 48.494 C 337.933 50.811,334.022 55.785,334.011 56.163 C 333.997 56.612,337.018 60.560,337.923 61.276 C 338.287 61.564,337.958 61.023,337.192 60.074 C 336.427 59.125,335.481 57.842,335.092 57.224 L 334.384 56.099 338.004 51.638 C 341.881 46.861,342.507 45.433,341.440 43.805 C 340.027 41.648,338.497 42.490,334.607 47.565 C 330.521 52.896,330.815 52.917,326.590 47.000 C 323.473 42.636,321.668 41.770,320.029 43.854 M294.960 43.506 C 293.743 44.318,293.600 45.711,293.606 56.674 C 293.609 62.793,293.744 68.008,293.906 68.262 C 294.068 68.516,294.200 63.327,294.200 56.730 C 294.200 41.968,292.995 43.549,304.139 43.692 C 313.577 43.814,314.294 44.041,313.013 46.510 C 312.702 47.110,312.588 47.600,312.760 47.600 C 313.090 47.600,314.000 45.826,314.000 45.181 C 314.000 43.444,297.259 41.971,294.960 43.506 M347.289 43.823 C 346.220 44.572,346.097 46.452,347.065 47.251 C 347.667 47.747,347.686 47.716,347.265 46.926 C 345.661 43.915,346.633 43.599,357.474 43.605 C 368.452 43.612,368.400 43.603,368.400 45.604 C 368.400 47.457,368.089 47.600,364.047 47.600 C 359.741 47.600,359.985 46.923,360.093 58.580 L 360.185 68.600 360.300 58.832 C 360.434 47.444,360.230 48.000,364.275 48.000 C 368.108 48.000,368.800 47.633,368.800 45.600 C 368.800 44.455,368.590 43.916,368.026 43.614 C 366.667 42.887,348.363 43.071,347.289 43.823 M160.940 46.725 L 160.080 47.800 152.940 48.000 L 145.800 48.200 145.800 50.600 L 145.800 53.000 150.537 53.200 C 155.966 53.429,156.800 53.910,156.800 56.812 C 156.800 60.130,155.669 60.800,150.063 60.800 C 145.371 60.800,145.600 60.544,145.600 65.771 C 145.600 69.584,145.329 70.280,143.600 70.916 C 143.082 71.107,143.085 71.141,143.624 71.168 C 145.350 71.256,145.792 70.246,146.000 65.734 L 146.200 61.400 150.359 61.285 C 157.065 61.100,159.514 58.012,156.137 53.998 L 155.129 52.800 150.564 52.800 L 146.000 52.800 146.000 50.600 L 146.000 48.400 152.904 48.400 C 160.022 48.400,162.000 47.875,162.000 45.984 C 162.000 45.448,161.913 45.509,160.940 46.725 M131.203 47.121 C 132.630 50.059,131.583 55.944,129.236 58.175 C 127.705 59.630,127.699 60.427,129.198 63.147 C 131.320 66.997,131.174 69.322,128.735 70.524 C 127.702 71.033,127.588 71.184,128.230 71.191 C 131.043 71.222,131.747 67.355,129.692 63.168 C 128.117 59.960,128.113 59.823,129.553 58.477 C 130.188 57.885,130.978 56.860,131.310 56.200 C 132.331 54.170,132.375 48.221,131.378 46.976 C 130.783 46.234,130.776 46.241,131.203 47.121 M53.300 47.648 C 51.477 48.174,51.560 48.195,55.701 48.246 L 59.400 48.292 57.400 47.764 C 55.085 47.152,55.022 47.150,53.300 47.648 M208.693 48.615 C 203.422 52.196,203.512 61.148,208.854 64.683 C 211.785 66.623,216.605 66.355,219.261 64.106 C 220.560 63.006,222.981 63.606,223.123 65.063 C 223.297 66.860,221.811 68.101,217.631 69.648 C 216.878 69.926,216.461 70.220,216.704 70.301 C 217.258 70.486,221.164 68.658,222.557 67.562 C 223.305 66.974,223.600 66.368,223.600 65.420 C 223.600 62.807,221.523 62.417,218.000 64.367 C 211.892 67.749,205.200 63.689,205.200 56.600 C 205.200 52.894,206.865 50.080,210.111 48.300 C 210.813 47.915,211.117 47.600,210.787 47.600 C 210.456 47.600,209.514 48.057,208.693 48.615 M237.776 48.187 C 236.766 48.951,237.204 48.959,238.654 48.202 C 239.284 47.874,239.519 47.604,239.176 47.602 C 238.834 47.601,238.204 47.864,237.776 48.187 M245.663 48.408 C 251.070 51.265,252.169 59.138,247.736 63.254 C 243.304 67.369,236.343 65.872,234.124 60.327 C 233.781 59.469,233.422 58.844,233.327 58.939 C 233.019 59.247,234.815 62.675,235.720 63.507 C 243.450 70.612,254.555 61.729,249.813 52.233 C 248.809 50.223,245.918 47.581,244.761 47.618 C 244.452 47.627,244.858 47.983,245.663 48.408 M298.880 48.080 C 298.616 48.344,298.400 49.591,298.400 50.851 C 298.400 54.283,298.616 54.400,304.984 54.400 C 311.538 54.400,312.766 54.944,311.465 57.273 L 310.729 58.588 311.565 57.832 C 314.199 55.448,311.834 54.000,305.303 54.000 C 298.942 54.000,298.616 53.821,298.892 50.491 C 298.997 49.234,299.308 48.177,299.636 47.969 C 299.946 47.773,300.011 47.609,299.780 47.606 C 299.549 47.603,299.144 47.816,298.880 48.080 M350.400 47.879 C 351.830 47.948,353.405 48.097,353.900 48.210 L 354.800 48.415 354.806 58.108 C 354.812 68.602,354.966 69.487,356.898 70.167 C 358.030 70.565,360.000 69.869,360.000 69.070 C 360.000 68.853,359.671 68.974,359.269 69.338 C 358.367 70.154,357.254 70.166,356.200 69.371 C 355.444 68.800,355.394 68.235,355.298 59.083 C 355.165 46.451,355.563 47.583,351.292 47.677 C 348.234 47.745,348.123 47.770,350.400 47.879 M114.948 48.484 C 114.703 48.881,114.644 50.893,114.780 54.300 C 114.805 54.931,120.132 54.991,121.885 54.380 C 124.078 53.616,124.612 51.106,122.961 49.322 L 121.922 48.200 122.761 49.354 C 124.901 52.297,123.353 54.161,118.749 54.183 L 115.400 54.200 115.283 51.316 L 115.166 48.433 118.483 48.298 L 121.800 48.163 118.524 48.081 C 116.314 48.027,115.150 48.158,114.948 48.484 M51.200 49.079 C 51.200 49.615,52.300 51.034,52.533 50.799 C 52.642 50.690,52.387 50.175,51.966 49.656 C 51.545 49.136,51.200 48.877,51.200 49.079 M235.712 49.700 C 234.551 50.962,233.201 53.286,233.214 54.000 C 233.220 54.330,233.650 53.732,234.170 52.671 C 234.690 51.610,235.526 50.305,236.027 49.771 C 236.529 49.237,236.849 48.800,236.739 48.800 C 236.629 48.800,236.167 49.205,235.712 49.700 M200.485 50.813 C 200.218 51.240,200.007 51.907,200.016 52.295 C 200.025 52.693,200.288 52.408,200.622 51.639 C 201.290 50.101,201.214 49.645,200.485 50.813 M57.473 52.341 C 62.733 54.120,64.851 55.464,65.977 57.739 C 66.613 59.023,66.799 59.194,66.800 58.489 C 66.800 57.388,63.978 54.477,61.998 53.536 C 60.276 52.719,54.305 50.795,53.552 50.815 C 53.248 50.823,55.013 51.510,57.473 52.341 M254.816 51.220 C 254.807 51.561,254.996 52.036,255.236 52.276 C 255.490 52.530,255.672 54.284,255.671 56.456 C 255.669 61.623,253.981 64.815,249.400 68.317 L 248.200 69.235 249.543 68.517 C 253.573 66.365,256.073 61.811,256.094 56.580 C 256.107 53.554,254.888 48.443,254.816 51.220 M43.254 51.714 C 43.111 53.590,47.519 58.026,49.486 57.985 C 49.879 57.977,49.453 57.620,48.540 57.192 C 46.696 56.327,43.741 53.221,43.478 51.871 C 43.355 51.235,43.294 51.192,43.254 51.714 M199.427 55.300 C 199.300 56.455,199.349 58.030,199.536 58.800 C 199.808 59.915,199.882 59.487,199.899 56.700 C 199.923 52.719,199.763 52.244,199.427 55.300 M232.914 56.600 C 232.917 57.700,232.995 58.103,233.087 57.495 C 233.179 56.886,233.177 55.986,233.082 55.495 C 232.987 55.003,232.911 55.500,232.914 56.600 M51.376 58.613 C 51.804 58.936,52.614 59.192,53.176 59.182 C 54.024 59.168,53.925 59.066,52.600 58.588 C 50.603 57.869,50.399 57.873,51.376 58.613 M72.464 59.800 C 72.444 60.680,72.703 61.850,73.039 62.400 L 73.650 63.400 73.386 62.400 C 73.241 61.850,72.982 60.680,72.811 59.800 L 72.500 58.200 72.464 59.800 M298.880 58.880 C 298.602 59.158,298.400 60.493,298.400 62.057 C 298.400 65.934,298.538 66.000,306.646 66.000 C 313.533 66.000,313.600 66.019,313.600 68.019 C 313.600 69.475,312.319 69.661,303.211 69.528 C 298.406 69.457,294.682 69.532,294.937 69.694 C 296.079 70.419,312.644 70.036,313.338 69.269 C 315.858 66.484,313.922 65.420,306.073 65.274 C 298.420 65.132,298.817 65.323,298.805 61.776 C 298.796 58.989,299.114 58.831,305.000 58.694 L 310.200 58.574 304.780 58.487 C 300.994 58.426,299.215 58.545,298.880 58.880 M54.973 59.556 C 55.094 59.751,55.688 60.036,56.294 60.188 C 58.537 60.751,59.131 62.274,57.458 63.169 C 56.524 63.669,52.812 63.597,50.200 63.029 C 49.362 62.846,49.483 62.952,50.600 63.378 C 56.135 65.489,62.175 62.218,56.909 59.961 C 54.906 59.103,54.661 59.051,54.973 59.556 M66.868 61.800 C 66.883 64.172,66.887 64.182,67.288 62.669 C 67.567 61.617,67.563 60.865,67.274 60.269 C 66.932 59.561,66.857 59.845,66.868 61.800 M200.022 60.916 C 199.919 64.215,206.820 70.475,210.449 70.374 C 211.064 70.356,210.679 70.109,209.361 69.674 C 205.195 68.298,202.357 65.716,200.722 61.817 C 200.350 60.928,200.035 60.522,200.022 60.916 M44.140 62.471 C 41.099 63.942,42.266 70.007,45.589 69.999 C 45.925 69.998,45.636 69.653,44.947 69.233 C 40.910 66.771,41.966 62.577,46.611 62.622 C 47.975 62.635,48.595 62.526,48.148 62.350 C 47.074 61.928,45.140 61.986,44.140 62.471 M114.791 62.300 C 114.786 62.465,114.740 64.059,114.688 65.842 C 114.591 69.204,114.195 70.158,112.614 70.841 C 111.879 71.158,111.898 71.183,112.800 71.096 C 114.320 70.950,115.199 68.828,115.199 65.300 L 115.200 62.400 117.600 62.400 C 118.920 62.400,120.000 62.546,120.000 62.724 C 120.000 62.901,120.279 63.396,120.619 63.824 C 121.166 64.509,121.165 64.448,120.609 63.300 C 120.005 62.052,114.826 61.162,114.791 62.300 M339.065 62.800 C 339.541 63.350,340.576 64.786,341.365 65.991 C 342.154 67.196,342.800 68.022,342.800 67.826 C 342.800 67.187,340.442 63.777,339.308 62.777 L 338.200 61.800 339.065 62.800 M98.832 63.431 C 98.762 64.385,96.165 67.765,94.671 68.848 C 93.796 69.481,93.255 70.000,93.468 70.000 C 94.805 70.000,99.487 64.529,99.055 63.471 C 98.937 63.181,98.851 63.166,98.832 63.431 M73.608 63.942 C 73.577 66.141,79.962 71.294,82.544 71.154 C 83.348 71.110,83.352 71.096,82.600 70.926 C 79.597 70.246,76.502 67.995,74.763 65.227 C 74.132 64.222,73.612 63.644,73.608 63.942 M334.835 65.700 C 338.529 70.520,339.910 71.252,341.630 69.300 L 342.600 68.200 341.574 69.100 C 339.675 70.766,338.534 70.138,335.388 65.695 C 334.735 64.772,334.050 64.013,333.866 64.009 C 333.683 64.004,334.119 64.765,334.835 65.700 M66.432 64.840 C 66.414 65.192,65.829 66.272,65.130 67.240 C 64.432 68.208,64.160 68.755,64.525 68.455 C 65.546 67.618,66.890 65.259,66.665 64.699 C 66.535 64.377,66.452 64.427,66.432 64.840 M121.215 65.200 C 121.221 65.530,121.490 66.149,121.813 66.576 C 122.568 67.575,122.563 67.205,121.802 65.746 C 121.474 65.116,121.210 64.870,121.215 65.200 M122.412 67.705 C 122.371 68.714,124.349 71.208,125.162 71.172 C 125.687 71.149,125.674 71.094,125.090 70.863 C 124.699 70.709,123.940 69.866,123.402 68.991 C 122.865 68.116,122.419 67.537,122.412 67.705 M107.200 69.462 C 107.200 70.050,108.556 71.202,109.231 71.188 C 109.590 71.180,109.504 71.014,109.000 70.738 C 108.560 70.497,107.975 70.019,107.700 69.674 C 107.425 69.329,107.200 69.234,107.200 69.462 M236.800 69.800 C 237.350 70.114,238.250 70.370,238.800 70.368 C 239.593 70.366,239.468 70.245,238.200 69.788 C 236.167 69.056,235.508 69.061,236.800 69.800 M245.400 69.814 C 243.813 70.541,244.580 70.539,246.600 69.812 C 247.480 69.495,247.840 69.242,247.400 69.250 C 246.960 69.258,246.060 69.512,245.400 69.814 M46.976 70.567 C 47.432 70.939,48.423 71.179,49.376 71.150 L 51.000 71.100 49.400 70.808 C 48.520 70.647,47.440 70.385,47.000 70.225 C 46.211 69.939,46.211 69.944,46.976 70.567 M60.580 70.369 C 60.371 70.572,59.660 70.815,59.000 70.909 L 57.800 71.080 59.024 71.140 C 59.696 71.173,60.596 70.936,61.024 70.613 C 61.451 70.290,61.611 70.020,61.380 70.013 C 61.149 70.006,60.789 70.166,60.580 70.369 M91.780 70.366 C 91.571 70.568,90.950 70.813,90.400 70.912 L 89.400 71.091 90.424 71.146 C 90.986 71.175,91.796 70.936,92.224 70.613 C 92.651 70.290,92.811 70.020,92.580 70.013 C 92.349 70.006,91.989 70.165,91.780 70.366 M180.036 70.800 C 179.974 73.058,181.916 77.770,184.180 80.854 C 185.549 82.719,190.267 86.666,190.659 86.274 C 190.775 86.159,190.359 85.742,189.735 85.350 C 185.255 82.529,182.173 78.145,180.771 72.600 C 180.382 71.060,180.051 70.250,180.036 70.800 M52.000 71.600 C 53.333 72.027,56.007 72.027,57.000 71.600 C 57.527 71.373,56.640 71.260,54.400 71.268 C 52.117 71.276,51.329 71.385,52.000 71.600 M84.200 71.600 C 84.640 71.789,85.630 71.944,86.400 71.944 C 87.170 71.944,88.160 71.789,88.600 71.600 C 89.140 71.368,88.427 71.256,86.400 71.256 C 84.373 71.256,83.660 71.368,84.200 71.600 M25.620 73.000 C 25.561 75.913,32.779 85.680,34.915 85.576 C 35.182 85.564,35.060 85.339,34.645 85.076 C 31.584 83.143,26.827 77.208,26.786 75.271 C 26.771 74.549,25.634 72.334,25.620 73.000 M36.224 86.187 C 36.651 86.510,37.270 86.774,37.600 86.773 C 37.948 86.772,37.780 86.532,37.200 86.200 C 35.885 85.448,35.236 85.440,36.224 86.187 M191.776 87.013 C 192.204 87.336,192.834 87.599,193.176 87.598 C 193.519 87.596,193.284 87.326,192.654 86.998 C 191.204 86.241,190.766 86.249,191.776 87.013 M39.400 87.475 C 40.541 88.165,43.631 88.210,102.600 88.400 C 170.851 88.620,165.277 88.414,170.200 90.902 C 172.613 92.121,176.876 96.677,178.334 99.594 C 179.030 100.988,179.600 101.867,179.600 101.548 C 179.600 98.657,174.020 92.443,169.436 90.230 C 164.153 87.680,168.484 87.846,101.400 87.614 C 67.520 87.496,39.440 87.254,39.000 87.075 C 38.560 86.896,38.740 87.076,39.400 87.475 M194.170 87.952 C 194.635 88.705,197.085 88.881,211.000 89.167 C 224.081 89.435,225.547 89.533,227.000 90.239 C 234.685 93.970,236.200 97.225,236.200 110.000 L 236.200 119.400 235.056 121.693 C 232.816 126.186,228.688 129.510,224.502 130.193 C 223.568 130.345,222.703 130.634,222.578 130.835 C 222.113 131.588,223.817 131.137,228.426 129.288 C 230.454 128.474,233.831 124.918,235.236 122.118 L 236.600 119.400 236.600 109.800 L 236.600 100.200 235.426 97.842 C 233.891 94.760,230.796 91.658,227.800 90.199 L 225.400 89.030 211.000 88.784 C 201.440 88.620,196.222 88.380,195.474 88.069 C 194.126 87.508,193.882 87.486,194.170 87.952 M179.835 103.000 C 180.029 103.440,180.295 106.770,180.427 110.400 L 180.666 117.000 180.633 110.119 C 180.607 104.774,180.475 103.122,180.041 102.719 C 179.571 102.282,179.538 102.327,179.835 103.000 M180.990 118.400 C 182.256 124.660,189.304 131.200,194.784 131.200 C 196.041 131.200,194.918 130.449,193.300 130.208 C 187.955 129.411,183.237 125.048,181.791 119.564 C 181.165 117.194,180.571 116.330,180.990 118.400 M202.300 131.499 C 205.875 131.566,211.725 131.566,215.300 131.499 C 218.875 131.433,215.950 131.379,208.800 131.379 C 201.650 131.379,198.725 131.433,202.300 131.499 " stroke="none" fill="#72c2d8" fill-rule="evenodd"></path><path id="path3" d="M72.300 23.100 C 89.075 23.158,116.525 23.158,133.300 23.100 C 150.075 23.042,136.350 22.995,102.800 22.995 C 69.250 22.995,55.525 23.042,72.300 23.100 M39.400 23.600 C 39.085 24.109,40.012 24.109,40.800 23.600 C 41.288 23.285,41.236 23.211,40.524 23.206 C 40.042 23.203,39.536 23.380,39.400 23.600 M164.400 23.600 C 164.730 23.813,165.270 23.988,165.600 23.988 C 166.133 23.988,166.133 23.945,165.600 23.600 C 165.270 23.387,164.730 23.212,164.400 23.212 C 163.867 23.212,163.867 23.255,164.400 23.600 M36.800 24.600 C 35.494 25.347,35.951 25.355,37.654 24.616 C 38.394 24.294,38.730 24.031,38.400 24.030 C 38.070 24.029,37.350 24.286,36.800 24.600 M167.546 24.616 C 169.253 25.357,169.559 25.356,168.576 24.613 C 168.149 24.290,167.440 24.027,167.000 24.028 C 166.446 24.030,166.614 24.211,167.546 24.616 M33.181 26.706 C 31.188 28.098,27.200 32.502,27.200 33.311 C 27.200 33.504,27.857 32.792,28.660 31.731 C 30.350 29.495,31.984 27.924,34.100 26.502 C 35.442 25.600,35.862 25.200,35.468 25.200 C 35.396 25.200,34.367 25.878,33.181 26.706 M171.956 27.000 C 174.912 29.175,177.665 32.799,178.867 36.096 C 179.356 37.436,179.825 38.326,179.909 38.073 C 180.652 35.844,172.296 25.200,169.802 25.200 C 169.643 25.200,170.612 26.010,171.956 27.000 M25.646 36.839 C 25.401 37.543,25.209 38.408,25.219 38.760 C 25.230 39.112,25.512 38.618,25.847 37.661 C 26.182 36.705,26.374 35.841,26.274 35.741 C 26.174 35.641,25.892 36.135,25.646 36.839 M180.180 55.200 C 180.204 67.360,180.337 71.649,180.714 72.400 C 181.211 73.388,181.214 73.385,180.949 72.200 C 180.802 71.540,180.561 63.800,180.415 55.000 L 180.149 39.000 180.180 55.200 M24.982 55.800 C 24.982 64.600,25.035 68.143,25.100 63.673 C 25.164 59.204,25.164 52.004,25.099 47.673 C 25.035 43.343,24.982 47.000,24.982 55.800 M49.432 41.206 C 46.769 42.246,42.884 46.218,43.717 47.050 C 43.813 47.147,44.109 46.704,44.373 46.065 C 45.149 44.192,47.324 42.401,50.054 41.387 C 51.454 40.867,52.330 40.441,52.000 40.440 C 51.670 40.438,50.515 40.783,49.432 41.206 M59.800 41.140 C 64.475 42.431,65.946 43.830,65.444 46.505 C 65.031 48.708,63.615 49.153,60.000 48.215 C 59.359 48.049,59.483 48.179,60.346 48.578 C 65.348 50.889,68.403 45.191,63.715 42.293 C 62.079 41.281,59.366 40.376,58.154 40.439 C 57.739 40.460,58.480 40.776,59.800 41.140 M73.854 41.229 C 73.274 41.685,72.811 42.360,72.825 42.729 C 72.843 43.200,72.960 43.127,73.219 42.484 C 73.421 41.980,74.174 41.312,74.893 40.999 C 75.612 40.687,75.909 40.424,75.554 40.416 C 75.199 40.407,74.434 40.773,73.854 41.229 M77.840 40.971 C 79.653 41.761,79.756 42.234,80.009 51.000 L 80.240 59.000 80.320 51.280 C 80.413 42.285,79.840 40.335,77.126 40.416 C 76.837 40.424,77.158 40.674,77.840 40.971 M93.569 41.569 L 92.400 42.738 92.480 50.669 L 92.560 58.600 92.780 50.600 C 93.017 41.995,93.061 41.797,94.948 40.976 C 95.753 40.626,95.939 40.426,95.469 40.416 C 95.067 40.407,94.212 40.926,93.569 41.569 M97.400 40.954 C 99.667 41.942,99.665 41.932,99.527 52.137 C 99.457 57.301,99.532 61.318,99.694 61.063 C 99.856 60.808,99.991 56.497,99.994 51.482 L 100.000 42.364 99.018 41.382 C 98.478 40.842,97.623 40.407,97.118 40.416 C 96.297 40.430,96.326 40.486,97.400 40.954 M109.331 40.983 C 107.042 41.979,107.000 42.240,107.000 55.600 C 107.000 68.616,107.112 69.718,108.505 70.443 L 109.400 70.909 108.500 69.929 C 107.189 68.501,107.073 43.327,108.371 42.029 C 109.441 40.959,112.019 40.661,118.360 40.874 C 121.352 40.975,123.260 40.931,122.600 40.776 C 120.322 40.242,110.691 40.392,109.331 40.983 M140.485 41.003 C 138.150 42.017,137.999 42.937,138.006 56.087 C 138.009 62.529,138.144 68.008,138.306 68.263 C 138.468 68.517,138.544 63.387,138.476 56.863 C 138.295 39.629,137.467 40.675,151.135 40.875 L 159.671 41.000 160.635 42.122 C 161.746 43.414,161.840 44.375,161.015 45.971 C 160.199 47.549,159.936 47.600,152.591 47.600 C 148.992 47.600,145.963 47.735,145.861 47.900 C 145.758 48.065,148.914 48.110,152.873 48.000 L 160.072 47.800 161.036 46.678 C 162.700 44.741,161.870 41.651,159.461 40.811 C 157.568 40.152,142.085 40.308,140.485 41.003 M125.816 42.147 C 128.683 43.482,130.328 45.573,131.210 49.000 L 131.518 50.200 131.559 49.084 C 131.666 46.182,127.071 41.183,124.316 41.204 C 124.032 41.206,124.707 41.630,125.816 42.147 M208.600 43.022 C 207.590 43.516,207.558 43.570,208.400 43.366 C 208.950 43.232,210.120 42.982,211.000 42.811 L 212.600 42.500 211.200 42.468 C 210.430 42.450,209.260 42.700,208.600 43.022 M215.100 42.682 C 215.595 42.778,216.405 42.778,216.900 42.682 C 217.395 42.587,216.990 42.509,216.000 42.509 C 215.010 42.509,214.605 42.587,215.100 42.682 M237.000 43.022 C 235.990 43.516,235.958 43.570,236.800 43.366 C 237.350 43.232,238.520 42.982,239.400 42.811 L 241.000 42.500 239.600 42.468 C 238.830 42.450,237.660 42.700,237.000 43.022 M244.400 42.779 C 248.789 43.441,253.528 47.005,255.039 50.781 C 255.403 51.690,255.778 52.356,255.873 52.261 C 256.278 51.855,254.156 48.223,252.545 46.565 C 250.375 44.332,246.413 42.380,244.200 42.454 L 242.600 42.507 244.400 42.779 M263.036 43.631 L 262.000 44.861 262.000 56.600 L 262.000 68.339 263.036 69.569 C 264.532 71.348,268.000 70.629,268.000 68.540 C 268.000 68.167,267.607 68.405,266.964 69.169 C 265.751 70.612,264.443 70.753,263.362 69.558 C 262.648 68.769,262.600 67.953,262.600 56.600 C 262.600 45.247,262.648 44.431,263.362 43.642 C 265.022 41.808,267.202 42.646,269.915 46.161 C 270.408 46.800,270.897 47.236,271.003 47.131 C 271.108 47.025,270.243 45.918,269.082 44.670 C 266.471 41.864,264.768 41.571,263.036 43.631 M282.100 43.070 C 281.605 43.415,281.200 43.887,281.200 44.119 C 281.200 44.350,281.617 44.148,282.126 43.670 C 282.635 43.191,283.388 42.800,283.800 42.800 C 284.212 42.800,284.965 43.191,285.474 43.670 C 285.983 44.148,286.400 44.349,286.400 44.116 C 286.400 42.754,283.548 42.060,282.100 43.070 M322.000 42.691 C 323.348 42.936,324.116 43.673,326.705 47.200 C 330.944 52.977,330.475 52.955,334.607 47.565 C 338.497 42.490,340.027 41.648,341.440 43.805 C 342.506 45.432,341.881 46.861,338.017 51.623 C 333.868 56.735,333.889 56.022,337.748 60.697 C 339.096 62.332,340.785 64.505,341.500 65.527 C 342.215 66.549,342.800 67.191,342.800 66.953 C 342.800 66.448,341.473 64.642,337.839 60.200 C 334.547 56.176,334.531 56.359,338.623 51.383 C 342.561 46.595,343.138 45.037,341.585 43.384 C 339.696 41.373,338.136 42.272,334.005 47.756 C 330.817 51.986,330.705 51.988,327.665 47.857 C 324.397 43.416,323.327 42.388,322.045 42.454 L 321.000 42.509 322.000 42.691 M219.729 43.770 C 220.790 44.290,222.095 45.126,222.629 45.627 C 223.163 46.129,223.600 46.349,223.600 46.117 C 223.600 45.514,221.241 43.816,219.640 43.266 C 217.568 42.556,217.598 42.726,219.729 43.770 M294.181 43.858 L 293.200 44.917 293.200 56.600 L 293.200 68.283 294.181 69.342 L 295.162 70.400 303.892 70.400 C 313.747 70.400,314.400 70.241,314.400 67.839 C 314.400 66.415,313.208 64.973,312.323 65.327 C 311.977 65.466,312.032 65.548,312.486 65.568 C 313.944 65.636,314.484 68.238,313.269 69.338 C 312.491 70.041,295.961 70.363,294.960 69.694 C 293.745 68.883,293.600 67.484,293.600 56.600 C 293.600 41.890,292.581 43.214,303.900 43.206 C 314.182 43.199,314.731 43.418,313.392 47.000 L 313.092 47.800 313.733 47.000 C 314.599 45.919,314.558 45.108,313.571 43.854 L 312.742 42.800 303.952 42.800 L 295.162 42.800 294.181 43.858 M346.875 43.616 C 344.452 45.874,346.537 48.400,350.825 48.400 C 352.762 48.400,353.723 48.581,354.171 49.029 C 354.704 49.561,354.800 49.568,354.800 49.071 C 354.800 48.240,353.916 48.000,350.856 48.000 C 347.659 48.000,346.400 47.322,346.400 45.600 C 346.400 43.355,347.129 43.200,357.715 43.200 C 368.478 43.200,368.800 43.270,368.800 45.600 C 368.800 47.630,368.107 48.000,364.306 48.000 C 360.192 48.000,360.401 47.445,360.395 58.380 C 360.392 63.561,360.286 68.183,360.161 68.650 C 359.598 70.747,356.351 70.843,355.314 68.793 C 354.969 68.110,354.810 68.010,354.806 68.471 C 354.790 70.319,358.019 71.361,359.656 70.036 C 360.596 69.275,360.600 69.233,360.713 59.336 C 360.845 47.832,360.631 48.400,364.832 48.400 C 368.101 48.400,369.333 47.634,369.333 45.600 C 369.333 42.930,368.788 42.800,357.631 42.800 C 348.241 42.800,347.707 42.840,346.875 43.616 M72.567 51.000 C 72.567 55.180,72.626 56.836,72.698 54.679 C 72.771 52.523,72.770 49.103,72.698 47.079 C 72.625 45.056,72.566 46.820,72.567 51.000 M205.146 44.600 C 203.205 45.872,199.589 50.522,200.124 51.057 C 200.222 51.156,200.858 50.253,201.536 49.051 C 202.369 47.576,203.511 46.335,205.050 45.233 C 207.491 43.485,207.562 43.016,205.146 44.600 M233.582 44.578 C 231.789 45.754,229.838 47.966,228.802 49.995 C 227.499 52.551,227.896 52.405,229.334 49.800 C 230.273 48.098,231.384 46.847,233.152 45.500 C 235.765 43.510,236.009 42.985,233.582 44.578 M280.795 51.724 C 280.567 60.062,281.019 59.928,275.800 53.202 C 272.632 49.118,271.182 47.371,271.633 48.181 C 272.170 49.144,279.251 58.344,279.817 58.814 C 281.019 59.812,281.222 58.672,281.104 51.570 L 280.989 44.600 280.795 51.724 M286.577 56.600 C 286.577 63.200,286.632 65.956,286.699 62.725 C 286.766 59.493,286.766 54.093,286.699 50.725 C 286.632 47.356,286.577 50.000,286.577 56.600 M319.200 46.612 C 319.200 46.827,320.820 48.982,322.800 51.400 C 326.907 56.417,326.924 56.474,324.900 58.844 C 322.935 61.146,320.296 64.440,319.796 65.216 C 319.234 66.089,321.418 63.675,322.706 62.000 C 323.298 61.230,324.461 59.810,325.291 58.844 C 327.447 56.334,327.414 56.230,322.592 50.600 C 321.461 49.280,320.236 47.755,319.868 47.211 C 319.501 46.667,319.200 46.398,319.200 46.612 M56.000 47.373 C 56.770 47.684,57.760 47.941,58.200 47.944 L 59.000 47.949 58.200 47.627 C 57.760 47.449,56.770 47.192,56.000 47.055 L 54.600 46.807 56.000 47.373 M52.123 47.678 C 50.467 48.478,50.929 51.240,52.709 51.175 C 53.258 51.155,53.226 51.079,52.556 50.808 C 50.650 50.038,51.088 48.291,53.350 47.634 C 54.108 47.415,54.285 47.269,53.800 47.263 C 53.360 47.258,52.606 47.445,52.123 47.678 M114.667 47.867 C 114.167 48.366,114.392 48.905,114.918 48.468 C 115.203 48.232,116.778 47.975,118.418 47.899 L 121.400 47.759 118.167 47.679 C 116.388 47.636,114.813 47.720,114.667 47.867 M210.155 48.300 C 208.348 49.326,207.444 50.078,206.680 51.189 C 205.491 52.918,205.949 52.990,207.195 51.271 C 209.583 47.973,214.039 47.003,217.557 49.014 C 218.524 49.567,219.397 49.937,219.497 49.836 C 220.871 48.462,212.340 47.059,210.155 48.300 M238.842 48.034 C 238.315 48.245,237.985 48.518,238.108 48.641 C 238.231 48.764,238.695 48.670,239.139 48.432 C 241.833 46.991,246.831 48.698,248.767 51.720 C 249.218 52.424,249.590 52.816,249.593 52.591 C 249.643 49.578,242.525 46.561,238.842 48.034 M299.636 47.969 C 299.308 48.177,298.997 49.234,298.892 50.491 C 298.616 53.821,298.942 54.000,305.303 54.000 C 310.172 54.000,310.622 54.065,311.574 54.900 L 312.600 55.800 311.641 54.711 C 310.696 53.638,310.599 53.620,305.250 53.511 L 299.818 53.400 299.436 52.311 C 299.196 51.629,299.193 50.658,299.427 49.711 L 299.800 48.200 306.400 47.985 L 313.000 47.770 306.600 47.691 C 303.080 47.648,299.946 47.773,299.636 47.969 M43.309 49.600 C 43.309 50.590,43.387 50.995,43.482 50.500 C 43.578 50.005,43.578 49.195,43.482 48.700 C 43.387 48.205,43.309 48.610,43.309 49.600 M122.831 49.169 C 124.632 50.971,124.157 53.588,121.885 54.380 C 119.778 55.115,114.891 54.925,114.676 54.100 C 114.538 53.573,114.481 53.623,114.446 54.300 C 114.384 55.507,120.109 55.651,122.376 54.499 C 124.641 53.349,125.004 50.567,123.120 48.811 C 121.766 47.550,121.519 47.857,122.831 49.169 M222.602 49.198 C 222.203 49.639,222.062 50.000,222.289 50.000 C 222.792 50.000,223.790 48.857,223.521 48.588 C 223.415 48.482,223.002 48.756,222.602 49.198 M235.780 50.097 C 233.392 52.935,232.484 57.382,233.839 59.600 L 234.450 60.600 234.180 59.600 C 233.176 55.888,233.945 52.469,236.299 50.182 C 237.082 49.422,237.531 48.800,237.297 48.800 C 237.063 48.800,236.380 49.384,235.780 50.097 M114.514 51.400 C 114.517 52.500,114.595 52.903,114.687 52.295 C 114.779 51.686,114.777 50.786,114.682 50.295 C 114.587 49.803,114.511 50.300,114.514 51.400 M53.600 51.365 C 53.600 51.626,58.872 53.261,59.071 53.063 C 59.168 52.965,58.075 52.506,56.641 52.042 C 53.920 51.164,53.600 51.092,53.600 51.365 M43.618 52.057 C 43.599 52.765,47.029 56.800,47.651 56.800 C 47.858 56.800,47.382 56.233,46.593 55.540 C 45.803 54.847,44.815 53.632,44.396 52.840 C 43.978 52.048,43.627 51.696,43.618 52.057 M199.268 53.632 C 198.668 56.231,198.687 57.339,199.372 59.800 C 200.051 62.239,200.165 61.607,199.557 58.774 C 199.227 57.235,199.234 56.097,199.585 54.315 C 200.163 51.374,199.914 50.836,199.268 53.632 M227.452 53.300 C 227.132 54.495,227.185 59.220,227.528 60.085 C 227.678 60.462,227.800 58.887,227.800 56.585 C 227.800 52.001,227.800 52.002,227.452 53.300 M131.246 53.451 C 131.167 54.900,130.122 56.946,128.833 58.175 C 128.155 58.821,127.621 59.721,127.646 60.175 C 127.692 60.979,127.698 60.980,127.892 60.200 C 128.002 59.760,128.785 58.646,129.632 57.724 C 131.223 55.992,131.810 54.600,131.482 53.332 C 131.322 52.712,131.286 52.730,131.246 53.451 M145.861 53.300 C 145.963 53.465,147.933 53.600,150.238 53.600 C 153.461 53.600,154.679 53.755,155.514 54.271 C 156.580 54.930,156.587 54.928,155.887 54.171 C 155.166 53.390,145.388 52.541,145.861 53.300 M256.148 56.600 C 256.150 60.153,256.189 60.373,256.495 58.565 C 256.690 57.419,256.688 55.671,256.493 54.565 C 256.188 52.845,256.145 53.099,256.148 56.600 M61.626 54.300 C 62.947 54.970,64.303 56.076,65.097 57.131 C 66.470 58.955,66.892 58.954,65.689 57.129 C 64.591 55.465,61.282 53.200,59.948 53.200 C 59.678 53.200,60.433 53.695,61.626 54.300 M205.443 53.833 C 205.103 54.717,205.150 58.903,205.506 59.462 C 205.668 59.716,205.800 58.411,205.800 56.562 C 205.800 52.910,205.799 52.904,205.443 53.833 M249.799 56.819 C 249.798 58.788,249.830 60.400,249.870 60.400 C 250.389 60.400,250.734 55.930,250.310 54.708 C 249.825 53.310,249.800 53.413,249.799 56.819 M268.267 53.467 C 268.120 53.613,268.003 53.928,268.006 54.167 C 268.009 54.405,268.167 54.355,268.357 54.056 C 268.615 53.649,269.007 53.956,269.917 55.279 C 270.585 56.251,271.456 57.306,271.851 57.623 C 272.247 57.940,271.711 57.075,270.662 55.700 C 268.616 53.020,268.666 53.067,268.267 53.467 M156.464 56.871 C 156.411 58.417,155.992 59.374,155.071 60.053 C 155.032 60.082,152.944 60.217,150.432 60.353 C 147.210 60.527,145.834 60.750,145.762 61.110 C 145.706 61.391,145.751 61.436,145.863 61.210 C 145.982 60.971,147.730 60.800,150.053 60.800 C 155.800 60.800,157.128 59.911,156.693 56.355 C 156.556 55.228,156.517 55.315,156.464 56.871 M48.600 57.083 C 49.107 57.591,53.222 58.911,53.484 58.650 C 53.591 58.542,52.806 58.190,51.739 57.866 C 50.673 57.543,49.440 57.144,49.000 56.980 C 48.466 56.781,48.333 56.815,48.600 57.083 M311.472 57.900 C 310.911 58.463,309.775 58.648,305.687 58.846 L 300.600 59.091 305.690 59.046 C 310.404 59.003,310.847 58.933,311.679 58.100 C 312.173 57.605,312.486 57.200,312.375 57.200 C 312.263 57.200,311.857 57.515,311.472 57.900 M272.685 58.900 C 281.387 70.253,281.888 70.800,283.588 70.800 C 284.581 70.800,286.400 69.690,286.400 69.084 C 286.400 68.851,285.983 69.052,285.474 69.530 C 283.382 71.495,282.003 70.497,276.038 62.700 C 274.228 60.335,272.647 58.400,272.525 58.400 C 272.402 58.400,272.474 58.625,272.685 58.900 M55.985 59.614 C 57.186 60.046,58.215 60.400,58.271 60.400 C 59.114 60.400,59.090 62.147,58.234 63.003 C 57.685 63.551,57.395 64.000,57.589 64.000 C 58.447 64.000,59.587 61.923,59.163 61.131 C 58.727 60.317,55.631 58.789,54.467 58.814 C 54.100 58.822,54.783 59.182,55.985 59.614 M72.806 59.833 C 72.809 60.475,72.984 61.270,73.195 61.600 C 73.455 62.009,73.499 61.690,73.332 60.600 C 73.029 58.623,72.798 58.286,72.806 59.833 M299.214 59.574 C 298.500 60.908,298.814 65.200,299.626 65.200 C 299.809 65.200,299.766 64.647,299.530 63.972 C 299.013 62.489,299.335 59.614,300.070 59.148 C 300.449 58.908,300.461 58.811,300.114 58.806 C 299.847 58.803,299.442 59.148,299.214 59.574 M66.531 61.800 C 66.533 63.340,66.605 63.921,66.692 63.091 C 66.779 62.261,66.777 61.001,66.689 60.291 C 66.600 59.581,66.529 60.260,66.531 61.800 M80.439 59.800 C 80.426 60.640,81.269 61.801,82.605 62.785 C 83.065 63.123,82.945 62.869,82.323 62.185 C 81.731 61.533,81.067 60.550,80.848 60.000 C 80.514 59.159,80.449 59.127,80.439 59.800 M92.032 59.538 C 91.968 60.624,90.236 62.513,88.640 63.238 C 87.738 63.647,87.234 63.986,87.520 63.991 C 89.167 64.019,92.730 60.659,92.269 59.513 C 92.108 59.112,92.056 59.118,92.032 59.538 M206.000 60.814 C 206.000 61.597,209.879 65.203,210.699 65.182 C 211.116 65.172,210.789 64.842,209.893 64.369 C 209.064 63.932,207.849 62.833,207.193 61.927 C 206.537 61.021,206.000 60.520,206.000 60.814 M234.400 61.048 C 234.400 61.756,237.006 64.217,238.514 64.932 C 242.126 66.647,247.583 64.852,249.257 61.400 C 249.470 60.960,249.070 61.284,248.368 62.120 C 244.888 66.261,239.052 66.261,235.639 62.120 C 234.957 61.294,234.400 60.811,234.400 61.048 M255.187 62.087 C 253.152 67.220,248.769 69.939,241.800 70.394 L 237.800 70.655 241.485 70.728 C 246.305 70.822,248.751 69.944,251.972 66.962 C 254.012 65.073,256.371 61.437,255.877 60.943 C 255.784 60.850,255.473 61.365,255.187 62.087 M327.374 64.500 C 323.991 69.012,322.590 70.400,321.420 70.400 C 320.161 70.400,319.074 69.041,319.101 67.501 C 319.121 66.343,319.085 66.299,318.773 67.105 C 318.004 69.090,320.239 71.292,322.290 70.571 C 323.176 70.259,327.170 65.633,329.823 61.846 C 330.539 60.823,330.878 61.118,334.694 66.097 C 337.758 70.094,338.542 70.800,339.920 70.800 C 340.915 70.800,342.800 69.321,342.800 68.540 C 342.800 68.167,342.407 68.405,341.764 69.169 C 339.833 71.464,338.585 70.685,333.641 64.100 C 330.580 60.022,330.740 60.012,327.374 64.500 M228.027 61.600 C 228.026 61.930,228.290 62.549,228.613 62.976 C 229.360 63.964,229.352 63.315,228.600 62.000 C 228.268 61.420,228.028 61.252,228.027 61.600 M114.584 62.027 C 114.439 62.261,114.428 62.561,114.560 62.693 C 114.692 62.825,114.800 62.723,114.800 62.467 C 114.800 62.159,115.682 62.000,117.384 62.000 L 119.969 62.000 122.084 66.269 C 123.248 68.616,124.430 70.613,124.712 70.706 C 124.993 70.799,124.712 70.093,124.087 69.137 C 123.462 68.182,122.612 66.590,122.197 65.600 C 120.665 61.943,120.254 61.600,117.396 61.600 C 115.994 61.600,114.729 61.792,114.584 62.027 M98.263 63.801 C 97.338 66.042,93.903 69.240,91.605 69.998 C 90.663 70.309,90.113 70.638,90.384 70.728 C 92.510 71.437,99.827 64.448,99.124 62.380 C 99.056 62.179,98.668 62.818,98.263 63.801 M200.001 62.233 C 200.003 62.682,201.513 65.200,201.781 65.200 C 201.886 65.200,201.587 64.525,201.114 63.700 C 200.056 61.852,200.000 61.777,200.001 62.233 M44.572 62.786 C 43.562 63.195,42.400 64.890,42.400 65.955 C 42.400 67.862,47.414 71.213,49.471 70.681 C 50.062 70.529,50.031 70.484,49.311 70.446 C 48.823 70.421,47.440 69.965,46.239 69.434 C 41.157 67.187,42.178 62.321,47.600 62.950 C 48.891 63.100,49.117 63.063,48.400 62.820 C 47.103 62.379,45.610 62.366,44.572 62.786 M73.632 62.824 C 73.614 63.166,73.880 63.796,74.222 64.224 C 74.834 64.988,74.838 64.987,74.476 64.200 C 74.274 63.760,74.008 63.130,73.886 62.800 C 73.693 62.282,73.659 62.285,73.632 62.824 M218.556 63.686 C 217.004 64.533,215.381 65.058,213.800 65.225 L 211.400 65.478 213.600 65.532 C 215.367 65.575,216.233 65.346,218.000 64.367 C 221.481 62.440,223.552 62.800,223.646 65.349 C 223.674 66.086,223.770 66.299,223.882 65.868 C 224.205 64.617,223.663 63.357,222.591 62.869 C 221.198 62.234,221.229 62.228,218.556 63.686 M50.000 63.600 C 50.330 63.813,50.870 63.988,51.200 63.988 C 51.733 63.988,51.733 63.945,51.200 63.600 C 50.870 63.387,50.330 63.212,50.000 63.212 C 49.467 63.212,49.467 63.255,50.000 63.600 M114.308 66.271 C 114.144 68.836,113.962 69.463,113.211 70.071 C 112.716 70.472,112.483 70.800,112.694 70.800 C 113.780 70.800,114.527 69.100,114.713 66.202 C 114.819 64.551,114.815 63.200,114.705 63.200 C 114.595 63.200,114.417 64.582,114.308 66.271 M129.214 63.824 C 129.239 64.494,130.372 66.230,130.373 65.600 C 130.374 65.270,130.110 64.651,129.787 64.224 C 129.464 63.796,129.206 63.616,129.214 63.824 M53.507 64.290 C 54.226 64.379,55.306 64.377,55.907 64.286 C 56.508 64.195,55.920 64.122,54.600 64.124 C 53.280 64.126,52.788 64.201,53.507 64.290 M229.873 65.000 C 231.529 67.328,236.743 70.990,237.427 70.306 C 237.519 70.215,236.650 69.715,235.497 69.196 C 234.304 68.659,232.455 67.292,231.210 66.026 C 230.005 64.802,229.403 64.340,229.873 65.000 M65.018 66.605 C 63.940 68.187,62.448 69.219,59.600 70.352 C 58.769 70.682,58.735 70.749,59.400 70.748 C 61.412 70.745,67.279 65.941,66.372 65.040 C 66.277 64.946,65.668 65.650,65.018 66.605 M75.113 65.829 C 76.130 67.705,80.694 70.836,82.321 70.774 C 82.695 70.760,82.030 70.366,80.844 69.899 C 79.512 69.375,77.926 68.288,76.692 67.054 C 75.594 65.956,74.884 65.405,75.113 65.829 M202.988 66.713 C 204.258 68.118,206.766 69.722,208.400 70.175 C 208.950 70.327,208.320 69.891,207.000 69.205 C 205.680 68.520,203.970 67.383,203.201 66.679 L 201.802 65.400 202.988 66.713 M222.858 67.330 C 221.498 68.969,217.821 70.199,213.601 70.427 L 209.400 70.653 213.343 70.727 C 216.966 70.794,217.486 70.704,219.766 69.616 C 221.834 68.629,224.267 66.800,223.511 66.800 C 223.394 66.800,223.100 67.038,222.858 67.330 M129.078 69.834 C 128.460 70.365,128.100 70.796,128.278 70.791 C 128.778 70.777,130.612 69.279,130.394 69.061 C 130.287 68.955,129.695 69.303,129.078 69.834 M144.514 69.880 C 144.027 70.386,143.774 70.800,143.952 70.800 C 144.342 70.800,145.798 69.245,145.564 69.077 C 145.474 69.013,145.001 69.374,144.514 69.880 M138.800 69.489 C 138.800 69.992,139.943 70.990,140.212 70.721 C 140.318 70.615,140.044 70.202,139.602 69.802 C 139.161 69.403,138.800 69.262,138.800 69.489 M52.500 71.094 C 53.545 71.176,55.255 71.176,56.300 71.094 C 57.345 71.012,56.490 70.944,54.400 70.944 C 52.310 70.944,51.455 71.012,52.500 71.094 M84.700 71.093 C 85.635 71.177,87.165 71.177,88.100 71.093 C 89.035 71.009,88.270 70.940,86.400 70.940 C 84.530 70.940,83.765 71.009,84.700 71.093 M110.100 71.076 C 110.485 71.176,111.115 71.176,111.500 71.076 C 111.885 70.975,111.570 70.893,110.800 70.893 C 110.030 70.893,109.715 70.975,110.100 71.076 M141.300 71.076 C 141.685 71.176,142.315 71.176,142.700 71.076 C 143.085 70.975,142.770 70.893,142.000 70.893 C 141.230 70.893,140.915 70.975,141.300 71.076 M25.218 72.854 C 25.208 73.214,25.463 74.114,25.784 74.854 C 26.540 76.594,26.558 75.873,25.812 73.800 C 25.495 72.920,25.227 72.494,25.218 72.854 M181.228 74.400 C 181.228 74.730,181.486 75.450,181.800 76.000 C 182.130 76.578,182.372 76.747,182.372 76.400 C 182.372 76.070,182.114 75.350,181.800 74.800 C 181.470 74.222,181.228 74.053,181.228 74.400 M26.400 76.605 C 26.400 78.773,35.609 87.724,36.708 86.625 C 36.826 86.507,36.237 86.124,35.399 85.774 C 33.323 84.906,29.363 81.058,27.913 78.500 C 26.829 76.585,26.400 76.049,26.400 76.605 M182.855 78.000 C 184.004 80.438,186.922 83.551,189.800 85.411 C 194.230 88.273,195.343 88.491,206.400 88.658 C 211.790 88.740,218.211 88.851,220.669 88.905 C 223.126 88.959,225.047 88.913,224.936 88.802 C 224.825 88.691,218.405 88.495,210.667 88.367 C 196.001 88.123,195.734 88.092,191.800 86.204 C 188.962 84.841,185.275 81.349,182.892 77.764 C 182.464 77.121,182.458 77.158,182.855 78.000 M38.000 87.400 C 38.550 87.714,39.270 87.972,39.600 87.972 C 39.947 87.972,39.778 87.730,39.200 87.400 C 38.650 87.086,37.930 86.828,37.600 86.828 C 37.253 86.828,37.422 87.070,38.000 87.400 M42.579 88.492 C 44.411 88.873,165.556 89.091,164.090 88.711 C 163.476 88.552,135.568 88.372,102.072 88.311 C 68.576 88.250,41.804 88.332,42.579 88.492 M168.676 90.626 C 170.257 91.389,172.597 92.932,173.876 94.053 L 176.200 96.091 173.811 93.780 C 172.354 92.371,170.446 91.026,168.920 90.335 C 165.397 88.737,165.214 88.954,168.676 90.626 M228.000 90.308 C 230.760 91.637,234.028 94.921,235.224 97.568 C 235.728 98.682,236.212 99.521,236.300 99.433 C 237.713 98.021,228.926 89.085,226.262 89.224 C 226.008 89.238,226.790 89.725,228.000 90.308 M177.399 98.627 C 178.170 99.906,178.800 101.129,178.800 101.343 C 178.800 101.558,178.908 101.625,179.040 101.494 C 179.323 101.210,177.303 97.383,176.532 96.744 C 176.239 96.500,176.629 97.348,177.399 98.627 M236.600 109.686 C 236.600 117.038,236.471 119.627,236.068 120.334 C 235.775 120.848,235.635 121.368,235.756 121.490 C 236.780 122.513,237.779 105.432,236.927 101.486 C 236.725 100.552,236.600 103.689,236.600 109.686 M179.441 102.800 C 179.597 103.350,179.843 106.590,179.987 110.000 L 180.248 116.200 180.324 110.346 C 180.383 105.771,180.264 104.198,179.778 103.146 C 179.423 102.377,179.278 102.229,179.441 102.800 M180.428 117.429 C 180.279 121.779,187.133 130.400,190.741 130.400 C 191.080 130.400,190.432 129.939,189.301 129.375 C 185.464 127.463,182.485 123.684,181.156 119.041 C 180.771 117.698,180.444 116.973,180.428 117.429 M234.456 123.586 C 233.968 124.453,232.541 126.093,231.285 127.228 C 230.028 128.364,229.364 129.108,229.809 128.881 C 230.819 128.367,234.505 124.498,235.170 123.255 C 236.036 121.638,235.380 121.942,234.456 123.586 M227.200 129.800 C 226.620 130.132,226.452 130.372,226.800 130.373 C 227.130 130.374,227.749 130.110,228.176 129.787 C 229.164 129.040,228.515 129.048,227.200 129.800 M192.400 130.961 C 192.950 131.297,194.030 131.557,194.800 131.540 L 196.200 131.508 194.800 131.189 C 194.030 131.013,192.950 130.753,192.400 130.610 L 191.400 130.350 192.400 130.961 M224.671 130.662 C 224.527 130.806,223.732 131.056,222.904 131.216 C 221.537 131.481,221.509 131.511,222.600 131.536 C 223.828 131.565,226.713 130.491,225.567 130.432 C 225.218 130.415,224.815 130.518,224.671 130.662 " stroke="none" fill="#90cfe1" fill-rule="evenodd"></path><path id="path4" d="M37.786 23.541 C 32.836 25.562,28.481 29.599,26.110 34.365 L 24.600 37.400 24.600 55.400 C 24.600 72.245,24.650 73.528,25.374 75.400 C 27.817 81.710,33.136 86.646,39.525 88.531 C 40.545 88.832,60.057 89.034,102.800 89.187 L 164.600 89.408 167.200 90.505 C 173.401 93.119,177.439 97.877,179.333 104.800 C 179.722 106.219,179.947 106.631,179.968 105.962 C 180.127 100.852,174.702 93.557,168.474 90.506 L 165.400 89.000 103.600 88.774 C 63.776 88.628,41.231 88.403,40.200 88.140 C 35.032 86.826,28.951 82.006,26.901 77.600 C 24.929 73.361,25.029 74.366,24.886 57.323 C 24.712 36.625,25.141 34.490,30.579 29.002 C 33.231 26.326,38.183 23.560,41.200 23.071 C 41.894 22.959,41.772 22.905,40.800 22.896 C 40.030 22.889,38.674 23.179,37.786 23.541 M165.400 23.474 C 171.530 25.389,175.773 28.905,178.455 34.294 L 180.200 37.800 180.447 54.400 C 180.685 70.380,180.835 72.345,182.069 75.603 C 184.064 80.873,188.685 85.180,194.800 87.468 C 196.322 88.038,198.638 88.163,209.800 88.279 C 226.106 88.448,227.719 88.779,232.194 92.865 C 236.410 96.716,237.336 100.176,237.136 111.334 L 236.992 119.400 235.711 122.000 C 233.694 126.093,230.253 129.078,225.400 130.944 C 224.196 131.407,224.029 131.564,224.725 131.579 C 227.584 131.643,233.804 126.900,235.731 123.187 C 239.656 115.621,238.837 100.216,234.195 94.302 C 229.593 88.439,227.773 87.920,210.600 87.580 C 193.210 87.235,192.168 86.997,187.269 82.260 C 181.762 76.935,181.538 75.953,181.180 55.600 C 180.892 39.269,180.727 36.649,179.952 36.170 C 179.759 36.051,179.600 35.676,179.600 35.337 C 179.600 31.379,169.134 22.718,164.481 22.825 C 163.663 22.843,163.887 23.002,165.400 23.474 M50.059 41.385 C 40.652 44.879,41.449 54.581,51.402 57.743 C 59.356 60.270,60.400 61.026,58.687 63.017 C 57.568 64.317,54.543 64.757,51.700 64.033 C 50.765 63.795,49.235 63.409,48.300 63.175 C 42.445 61.711,40.791 66.961,46.305 69.509 C 49.849 71.146,58.357 71.129,61.613 69.478 C 67.664 66.409,68.265 58.187,62.688 54.789 C 61.980 54.357,59.262 53.328,56.650 52.502 C 49.689 50.301,48.856 48.247,54.433 47.042 C 55.002 46.919,56.712 47.194,58.233 47.652 C 63.516 49.245,64.971 49.026,65.432 46.570 C 66.308 41.903,57.063 38.784,50.059 41.385 M74.897 40.998 C 72.886 41.872,72.714 42.830,72.893 52.200 C 73.037 59.764,73.143 60.830,73.961 62.915 C 77.998 73.208,93.890 73.592,98.447 63.508 C 99.728 60.673,100.165 43.288,98.988 41.987 C 97.506 40.350,94.426 40.390,93.348 42.060 C 93.157 42.357,92.910 46.484,92.800 51.231 L 92.600 59.863 91.479 61.332 C 88.663 65.023,83.837 64.986,80.998 61.250 C 80.275 60.298,80.181 59.396,79.999 51.600 C 79.781 42.231,79.630 41.568,77.549 40.842 C 76.851 40.599,76.262 40.407,76.240 40.416 C 76.218 40.424,75.614 40.686,74.897 40.998 M109.800 41.201 C 107.596 41.905,107.600 41.876,107.600 56.007 L 107.600 69.061 108.526 69.930 C 111.373 72.605,114.044 70.607,114.362 65.566 L 114.600 61.800 117.260 61.683 C 120.256 61.550,120.622 61.840,122.198 65.600 C 124.340 70.709,126.500 72.010,129.145 69.785 C 130.794 68.397,130.767 67.203,129.000 63.481 C 127.293 59.885,127.286 59.649,128.833 58.175 C 133.534 53.694,131.678 44.671,125.503 41.987 C 123.160 40.969,112.237 40.422,109.800 41.201 M140.801 41.308 C 138.493 42.120,138.332 43.191,138.476 56.868 L 138.600 68.737 139.570 69.768 C 140.770 71.045,143.053 71.170,144.456 70.037 C 145.316 69.342,145.418 68.888,145.600 64.937 L 145.800 60.600 150.400 60.353 C 152.930 60.217,155.032 60.082,155.071 60.053 C 156.037 59.341,156.400 58.457,156.400 56.817 C 156.400 54.063,155.632 53.658,150.135 53.514 L 145.800 53.400 145.800 50.600 L 145.800 47.800 153.000 47.577 C 156.960 47.454,160.240 47.319,160.290 47.277 C 161.661 46.107,161.835 43.518,160.635 42.122 L 159.671 41.000 150.935 40.908 C 144.837 40.845,141.778 40.965,140.801 41.308 M61.600 42.211 C 64.804 43.430,66.245 46.366,64.294 47.697 C 63.609 48.165,59.455 47.686,58.110 46.984 C 55.673 45.713,51.027 46.756,50.543 48.683 C 50.114 50.395,51.260 51.376,55.063 52.556 C 64.032 55.336,66.000 57.006,66.000 61.839 C 66.000 67.141,61.646 70.400,54.562 70.400 C 47.374 70.400,42.733 68.035,43.821 64.927 C 44.257 63.682,47.622 63.092,49.382 63.952 C 53.559 65.994,60.000 64.684,60.000 61.792 C 60.000 60.501,57.758 58.902,55.200 58.370 C 54.430 58.210,53.170 57.851,52.400 57.574 C 51.630 57.296,50.237 56.805,49.305 56.482 C 41.587 53.809,42.910 43.378,51.200 41.548 C 53.427 41.056,59.602 41.450,61.600 42.211 M78.662 42.051 C 79.079 42.398,79.200 44.268,79.200 50.400 C 79.200 61.889,81.357 65.552,87.539 64.563 C 92.205 63.817,93.334 61.214,93.594 50.604 L 93.800 42.209 94.853 41.705 C 98.419 39.999,99.200 41.709,99.200 51.213 C 99.200 63.730,97.878 66.634,90.732 69.809 C 84.510 72.573,75.948 68.202,74.070 61.304 C 73.281 58.409,72.925 44.061,73.610 42.782 C 74.424 41.260,77.221 40.855,78.662 42.051 M125.000 42.347 C 131.389 45.259,133.057 53.330,128.231 57.978 C 126.460 59.684,126.457 59.581,128.400 63.503 C 130.294 67.327,130.355 68.039,128.904 69.384 C 126.733 71.397,124.934 70.470,123.157 66.420 C 122.631 65.221,121.814 63.511,121.342 62.620 L 120.484 61.000 117.551 60.881 C 113.815 60.729,113.600 60.983,113.600 65.545 C 113.600 70.235,111.543 71.989,108.926 69.530 L 108.000 68.661 108.000 56.019 C 108.000 45.225,108.091 43.248,108.623 42.489 C 109.494 41.245,122.338 41.133,125.000 42.347 M160.410 42.626 C 161.842 46.392,160.951 46.917,153.278 46.832 C 145.124 46.741,145.200 46.706,145.200 50.600 C 145.200 54.311,145.334 54.400,150.894 54.400 C 155.508 54.400,156.000 54.622,156.000 56.706 C 156.000 59.457,155.722 59.600,150.394 59.600 C 144.830 59.600,145.298 59.116,145.114 65.059 C 144.983 69.276,144.372 70.400,142.213 70.400 C 139.216 70.400,139.200 70.325,139.200 55.984 C 139.200 39.817,137.811 41.600,150.410 41.600 L 160.020 41.600 160.410 42.626 M210.200 41.950 C 196.547 44.505,194.112 63.695,206.643 69.992 C 212.102 72.735,220.743 71.443,223.808 67.425 C 226.331 64.117,222.601 60.542,219.000 62.816 C 213.323 66.403,207.969 64.715,206.407 58.846 C 204.498 51.676,210.694 46.465,217.400 49.600 C 220.595 51.094,222.101 51.136,223.467 49.770 C 227.573 45.663,218.606 40.378,210.200 41.950 M238.600 41.946 C 230.199 43.494,224.612 52.700,227.186 60.755 C 230.748 71.908,244.788 75.278,252.846 66.915 C 263.298 56.068,253.658 39.171,238.600 41.946 M262.894 42.900 C 261.462 44.424,261.394 45.186,261.600 57.408 L 261.800 69.271 262.922 70.235 C 264.300 71.419,265.949 71.470,267.346 70.371 L 268.400 69.542 268.402 62.071 L 268.404 54.600 269.517 55.800 C 270.130 56.460,272.929 60.014,275.737 63.698 C 281.679 71.491,282.806 72.295,285.645 70.776 C 287.138 69.977,287.536 63.414,287.216 44.882 C 287.192 43.492,285.479 42.000,283.907 42.000 C 280.736 42.000,279.879 44.162,280.051 51.731 C 280.199 58.241,280.214 58.239,275.719 52.280 C 268.312 42.459,267.856 42.000,265.510 42.000 C 264.191 42.000,263.524 42.230,262.894 42.900 M295.000 42.464 C 292.817 43.665,292.818 43.660,292.818 56.600 C 292.818 72.303,291.971 71.200,304.026 71.200 C 313.128 71.200,314.460 70.856,315.007 68.369 C 315.693 65.245,313.764 64.400,305.954 64.400 L 299.960 64.400 300.080 62.100 L 300.200 59.800 305.600 59.578 C 311.716 59.327,312.184 59.195,312.756 57.553 C 313.912 54.239,311.975 53.015,305.458 52.938 L 300.200 52.877 300.079 50.838 L 299.958 48.800 305.753 48.800 C 313.264 48.800,314.758 48.227,314.787 45.336 C 314.797 44.406,314.475 43.797,313.569 43.036 L 312.339 42.000 304.069 42.012 C 298.830 42.020,295.507 42.186,295.000 42.464 M319.670 42.926 C 317.835 44.879,318.378 46.782,322.072 51.352 C 323.872 53.578,325.492 55.460,325.672 55.533 C 326.387 55.824,325.877 56.740,323.183 60.000 C 317.764 66.558,317.114 68.127,318.981 70.142 C 321.204 72.541,322.935 71.680,327.313 66.000 C 330.903 61.342,330.477 61.315,334.338 66.445 C 336.096 68.779,337.834 70.804,338.200 70.945 C 340.769 71.931,343.200 70.417,343.200 67.830 C 343.200 65.972,343.087 65.790,338.300 59.962 C 335.015 55.963,334.974 56.729,338.722 52.076 C 343.848 45.713,343.976 45.384,342.164 43.231 C 339.862 40.494,337.757 41.614,333.018 48.100 C 330.591 51.422,331.050 51.506,327.772 47.133 C 323.598 41.565,321.817 40.640,319.670 42.926 M347.189 42.677 C 343.424 45.253,345.645 49.045,351.057 49.281 L 353.800 49.400 354.000 59.335 L 354.200 69.271 355.322 70.235 C 357.196 71.846,359.595 71.498,360.715 69.452 C 361.288 68.405,361.433 66.662,361.600 58.800 L 361.800 49.400 364.000 49.296 C 368.887 49.066,371.156 46.906,369.588 43.978 C 368.473 41.894,349.908 40.816,347.189 42.677 M218.990 43.050 C 222.069 44.020,223.680 45.492,223.680 47.333 C 223.680 50.386,221.574 51.092,218.005 49.234 C 211.613 45.908,205.800 49.416,205.800 56.600 C 205.800 63.995,211.607 67.303,218.370 63.760 C 222.758 61.462,225.939 63.827,223.179 67.336 C 218.105 73.787,203.953 71.095,200.384 63.000 C 194.959 50.698,205.932 38.933,218.990 43.050 M248.297 43.582 C 262.762 50.425,257.301 71.311,241.200 70.729 C 222.018 70.036,222.795 42.534,242.000 42.423 C 245.404 42.403,246.060 42.524,248.297 43.582 M267.694 43.188 C 268.245 43.622,270.109 45.827,271.837 48.088 C 275.909 53.420,278.213 56.319,279.535 57.772 L 280.600 58.943 280.800 51.448 C 281.039 42.502,282.172 40.552,285.600 43.186 L 286.600 43.954 286.600 56.600 L 286.600 69.246 285.600 70.014 C 284.496 70.862,283.140 71.010,282.012 70.406 C 281.282 70.016,276.273 63.724,270.121 55.471 C 268.155 52.834,268.013 53.264,268.006 61.871 L 268.000 69.142 266.946 69.971 C 265.462 71.138,264.251 71.014,263.036 69.569 L 262.000 68.339 262.000 56.600 L 262.000 44.861 263.036 43.631 C 264.276 42.156,266.155 41.978,267.694 43.188 M324.148 43.457 C 324.730 44.039,326.312 46.019,327.665 47.857 C 330.705 51.988,330.817 51.986,334.005 47.756 C 338.136 42.272,339.696 41.373,341.585 43.384 C 343.138 45.037,342.561 46.595,338.623 51.383 C 334.531 56.359,334.547 56.176,337.839 60.200 C 343.406 67.005,343.911 68.268,341.746 69.971 C 339.560 71.690,338.560 71.141,334.694 66.097 C 330.878 61.118,330.539 60.823,329.823 61.846 C 323.686 70.607,320.533 72.645,318.845 68.940 C 318.109 67.323,319.260 65.413,325.057 58.628 C 326.900 56.471,326.868 56.369,322.800 51.400 C 319.715 47.632,319.200 46.792,319.200 45.530 C 319.200 42.729,322.174 41.483,324.148 43.457 M313.571 43.854 C 315.963 46.895,314.483 47.761,306.484 48.000 L 299.800 48.200 299.427 49.711 C 299.193 50.658,299.196 51.629,299.436 52.311 L 299.818 53.400 305.196 53.512 C 311.159 53.637,312.400 54.136,312.400 56.408 C 312.400 58.572,311.292 58.991,305.306 59.086 C 302.329 59.134,299.807 59.260,299.700 59.367 C 299.261 59.806,299.161 63.078,299.555 64.100 L 299.980 65.200 306.459 65.200 C 313.739 65.200,314.400 65.420,314.400 67.839 C 314.400 70.241,313.747 70.400,303.892 70.400 L 295.162 70.400 294.181 69.342 L 293.200 68.283 293.200 56.600 L 293.200 44.917 294.181 43.858 L 295.162 42.800 303.952 42.800 L 312.742 42.800 313.571 43.854 M368.422 43.538 C 371.025 45.645,368.991 48.400,364.832 48.400 C 360.631 48.400,360.845 47.832,360.713 59.336 C 360.600 69.233,360.596 69.275,359.656 70.036 C 358.432 71.026,357.168 71.004,355.854 69.971 L 354.800 69.142 354.800 59.400 C 354.800 47.930,354.970 48.400,350.825 48.400 C 346.537 48.400,344.452 45.874,346.875 43.616 C 348.163 42.416,366.954 42.348,368.422 43.538 M115.600 47.093 C 113.825 47.419,113.600 47.901,113.606 51.349 C 113.614 55.740,113.670 55.800,117.685 55.800 C 121.603 55.800,123.288 55.199,124.396 53.406 C 126.838 49.455,121.926 45.930,115.600 47.093 M122.203 48.228 C 127.126 50.564,124.133 55.198,117.700 55.199 L 114.400 55.200 114.400 51.667 C 114.400 49.723,114.520 48.013,114.667 47.867 C 115.209 47.324,120.870 47.596,122.203 48.228 M238.550 48.613 C 230.468 52.157,233.180 65.200,242.000 65.200 C 250.193 65.200,253.114 53.863,246.116 49.227 C 244.026 47.843,240.887 47.588,238.550 48.613 M245.389 49.313 C 252.395 53.281,249.875 64.787,242.000 64.787 C 235.983 64.787,232.211 56.952,235.694 51.689 C 237.723 48.622,242.223 47.520,245.389 49.313 M180.060 117.387 C 179.849 122.961,187.650 131.747,192.657 131.574 C 193.125 131.558,192.882 131.322,192.000 130.936 C 186.842 128.677,184.747 127.103,182.897 124.096 C 181.683 122.122,180.553 119.061,180.279 117.000 C 180.146 115.997,180.110 116.060,180.060 117.387 " stroke="none" fill="#c6e6ef" fill-rule="evenodd"></path></g></svg>