<?xml version="1.0" standalone="no"?>
<!DOCTYPE svg PUBLIC "-//W3C//DTD SVG    20010904//EN"
 "http://www.w3.org/TR/2001/REC-SVG-20010904/DTD/svg10.dtd">
<svg version="1.0" xmlns="http://www.w3.org/2000/svg"
 width="1200.000000pt" height="340.000000pt" viewBox="0 0 1200.000000 340.000000"
 preserveAspectRatio="xMidYMid meet">
<g transform="translate(0.000000,340.000000) scale(0.100000,-0.100000)"
fill="#000000" stroke="none">
<path fill="#4DB2CF" d="M1040 2714 c-81 -35 -130 -112 -138 -214 l-4 -65 47 -13 c48 -13 64
-26 164 -136 93 -101 189 -115 460 -67 172 31 200 40 234 69 34 30 21 57 -62
133 -84 75 -94 89 -84 114 10 28 57 43 204 65 168 26 271 23 343 -9 57 -25
211 -135 220 -156 18 -47 -23 -67 -214 -101 -167 -31 -213 -50 -218 -96 -2
-19 5 -34 25 -51 197 -172 219 -186 311 -206 86 -18 159 -13 315 21 l147 33 0
263 0 264 -27 49 c-26 50 -65 85 -116 107 -21 9 -215 12 -800 12 -667 -1 -777
-3 -807 -16z"/>
<path fill="#4DB2CF" d="M3720 2237 c-161 -37 -263 -138 -316 -312 -25 -82 -25 -292 0 -385
40 -149 127 -238 271 -276 28 -8 99 -14 158 -14 116 0 194 19 265 64 48 30
115 104 141 153 69 136 78 382 20 537 -40 108 -124 188 -232 222 -69 21 -237
27 -307 11z m207 -162 c38 -11 62 -27 90 -59 52 -59 64 -99 70 -231 11 -237
-63 -361 -225 -372 -199 -15 -282 100 -270 371 4 92 9 113 36 168 58 117 167
162 299 123z"/>
<path fill="#4DB2CF" d="M7171 2235 c-119 -26 -223 -110 -276 -221 -38 -80 -55 -168 -55 -284
0 -176 42 -293 135 -379 84 -76 143 -95 290 -96 133 0 202 17 255 62 28 23 30
30 30 93 0 38 -5 72 -11 75 -5 4 -44 -10 -86 -31 -66 -32 -85 -37 -147 -37
-42 0 -85 6 -106 15 -87 38 -138 130 -147 266 -15 224 69 369 217 380 81 6
117 -2 185 -43 64 -39 80 -42 89 -19 10 26 7 112 -6 139 -21 47 -158 96 -262
94 -22 0 -70 -7 -105 -14z"/>
<path fill="#4DB2CF" d="M10833 2153 c-9 -3 -13 -31 -13 -88 l0 -84 -52 -3 -53 -3 -3 -49 c-6
-86 1 -96 58 -96 l50 0 0 -212 c1 -270 12 -306 105 -349 49 -23 161 -25 210
-5 39 16 48 40 43 107 l-3 44 -66 -3 c-98 -6 -99 -4 -99 230 l0 188 73 0 c43
0 78 5 85 12 12 12 16 95 6 122 -5 13 -22 16 -85 16 l-79 0 0 71 c0 103 -6
109 -93 108 -40 0 -78 -3 -84 -6z"/>
<path fill="#4DB2CF" d="M963 2109 l-63 -11 0 -249 c0 -137 2 -249 4 -249 3 0 17 4 31 10 14
5 117 30 227 55 211 48 263 68 297 111 23 30 27 76 9 96 -7 7 -44 49 -83 93
-38 44 -79 88 -90 97 -53 45 -208 67 -332 47z"/>
<path fill="#4DB2CF" d="M4769 1987 c-47 -18 -100 -51 -124 -77 -26 -29 -33 -25 -37 22 -3 38
-6 43 -35 52 -20 5 -50 5 -75 0 l-43 -9 -3 -483 -2 -482 26 -10 c36 -14 127
-12 147 2 14 11 17 37 19 172 l3 159 32 -27 c47 -40 95 -56 165 -56 178 0 281
140 281 380 0 165 -46 278 -135 333 -57 35 -159 46 -219 24z m81 -162 c50 -26
73 -86 74 -190 1 -150 -43 -225 -132 -225 -27 0 -51 9 -79 29 -68 49 -73 62
-73 183 l0 108 35 39 c60 66 119 85 175 56z"/>
<path fill="#4DB2CF" d="M5487 1990 c-96 -24 -169 -88 -213 -185 -39 -85 -46 -241 -15 -342
26 -88 79 -151 153 -183 99 -44 338 -37 416 10 30 18 32 24 32 75 0 68 -11 74
-83 50 -29 -10 -89 -20 -134 -22 -70 -5 -88 -2 -127 16 -48 24 -86 82 -86 134
l0 27 208 0 c264 0 256 -4 250 124 -7 147 -55 229 -162 277 -55 24 -178 34
-239 19z m155 -141 c31 -12 68 -80 68 -122 l0 -27 -140 0 c-105 0 -140 3 -140
13 0 34 23 86 48 111 48 45 95 52 164 25z"/>
<path fill="#4DB2CF" d="M6360 1985 c-25 -8 -67 -33 -95 -55 l-50 -40 -5 43 c-5 39 -8 43 -42
51 -24 6 -52 6 -75 0 l-38 -9 -3 -349 c-2 -273 1 -351 10 -358 20 -12 152 -10
166 4 9 9 12 76 12 238 l0 227 42 42 c47 46 88 62 132 50 76 -22 86 -60 86
-337 0 -191 2 -221 16 -226 28 -11 150 -6 162 6 15 15 17 424 2 513 -22 134
-92 204 -212 211 -39 2 -80 -2 -108 -11z"/>
<path fill="#4DB2CF" d="M7891 1984 c-68 -18 -109 -43 -156 -95 -49 -54 -72 -109 -86 -200
-30 -204 53 -376 206 -424 81 -25 239 -18 313 14 106 47 176 161 189 305 14
172 -47 320 -157 376 -79 40 -211 50 -309 24z m189 -152 c64 -35 96 -146 78
-274 -15 -110 -63 -158 -160 -158 -105 0 -149 56 -156 201 -7 131 25 209 98
238 40 16 103 12 140 -7z"/>
<path fill="#4DB2CF" d="M8820 1985 c-25 -8 -67 -33 -95 -55 l-50 -40 -5 43 c-5 39 -8 43 -42
51 -24 6 -52 6 -75 0 l-38 -9 -3 -349 c-2 -273 1 -351 10 -358 20 -12 152 -10
166 4 9 9 12 76 12 238 l0 227 42 42 c47 46 88 62 132 50 76 -22 86 -60 86
-337 0 -251 -8 -232 100 -232 47 0 71 4 80 15 9 11 11 79 8 272 -5 273 -10
306 -58 371 -51 69 -173 99 -270 67z"/>
<path fill="#4DB2CF" d="M9528 1986 c-97 -26 -167 -94 -209 -205 -17 -44 -22 -78 -23 -161 -1
-180 45 -277 159 -335 52 -27 70 -30 166 -33 111 -4 237 15 273 41 19 14 31
75 22 113 -8 30 -13 30 -125 -1 -86 -23 -199 -18 -238 11 -31 22 -58 71 -67
121 l-5 32 220 3 c266 4 254 -3 245 128 -12 196 -126 302 -319 299 -29 0 -73
-6 -99 -13z m179 -142 c27 -17 48 -56 57 -106 l7 -38 -141 0 -140 0 0 25 c0
34 23 86 48 108 42 38 120 43 169 11z"/>
<path fill="#4DB2CF" d="M10055 1983 c-11 -3 -24 -9 -29 -13 -5 -5 32 -82 83 -174 l92 -166
-96 -170 c-55 -97 -94 -177 -91 -186 5 -12 23 -14 93 -12 l88 3 64 123 c35 67
67 122 70 122 3 0 35 -55 71 -123 l65 -122 91 -3 c66 -2 94 1 102 11 8 10 -10
51 -80 177 -49 91 -92 170 -95 177 -3 7 34 83 81 168 47 86 86 162 86 169 0
17 -31 26 -87 26 -75 0 -86 -10 -149 -129 -32 -61 -61 -111 -64 -111 -3 0 -32
49 -64 110 -31 60 -62 113 -68 116 -14 9 -137 14 -163 7z"/>
<path fill="#4DB2CF" d="M2129 1886 c-2 -3 -84 -23 -182 -45 -189 -43 -237 -63 -263 -113 -27
-52 -12 -83 106 -220 134 -156 145 -193 85 -273 -34 -45 -91 -69 -339 -140
-198 -57 -238 -65 -310 -65 -138 0 -244 42 -302 121 l-24 33 0 -65 c0 -128 42
-208 132 -253 l52 -26 754 0 c544 0 766 3 793 12 52 15 117 73 140 122 17 37
19 70 19 311 l0 270 -47 22 c-27 12 -106 72 -176 133 -141 121 -176 143 -269
165 -59 14 -159 20 -169 11z"/>
</g>
</svg>
